<?xml version="1.0" standalone="no"?>
<!DOCTYPE svg PUBLIC "-//W3C//DTD SVG 1.1//EN" "http://www.w3.org/Graphics/SVG/1.1/DTD/svg11.dtd" >
<svg xmlns="http://www.w3.org/2000/svg">
<metadata></metadata>
<defs>
<font id="antykwa_poltawskiegoexpdRg" horiz-adv-x="475" >
<font-face units-per-em="2048" ascent="1536" descent="-512" />
<missing-glyph horiz-adv-x="692" />
<glyph unicode="&#xfb01;" horiz-adv-x="1298" d="M1233 0h-488v74h115q29 147 29 286v222q0 139 -29 286h-426v-508q0 -139 29 -286h151v-74h-548v74h139q29 147 28 286v508h-167v74h167v148q0 98 39 186q82 182 410 182q240 0 414 -168v-123l-107 -61l-106 61v123q-78 94 -201 94q-274 0 -274 -129q0 -63 14 -157 q12 -102 12 -156h311q188 0 373 25q-29 -197 -28 -385v-222q0 -139 28 -286h115v-74z" />
<glyph unicode="&#xfb02;" horiz-adv-x="1298" d="M1233 0h-488v74h115q29 147 29 286v713q0 80 -8 144q-14 168 -334 167q-57 0 -98 -37.5t-41 -91.5q0 -63 14 -157q12 -102 12 -156h180v-74h-180v-508q0 -139 29 -286h151v-74h-548v74h139q29 147 28 286v508h-167v74h167v148q0 55 15.5 113.5t48.5 117.5t98.5 98 t151.5 39q63 0 192 -9t193 -9q94 0 186 18q-29 -197 -28 -385v-713q0 -139 28 -286h115v-74z" />
<glyph unicode="&#xfb04;" horiz-adv-x="1978" d="M1913 0h-488v74h115q29 147 29 286v713q0 80 -8 144q-14 168 -334 167q-57 0 -98.5 -37.5t-41.5 -91.5q0 -63 15 -157q12 -102 12 -156h180v-74h-180v-508q0 -139 29 -286h151v-74h-549v74h140q29 147 28 286v508h-479v-508q0 -139 29 -286h151v-74h-548v74h139 q29 147 28 286v508h-167v74h167v148q0 55 15.5 113.5t48.5 117.5t98.5 98t151.5 39q96 0 143 -18.5t117 -83.5v-101h-168q0 53 -24.5 91t-67.5 38q-57 0 -98 -37.5t-41 -91.5q0 -63 14 -157q12 -102 12 -156h479v148q0 55 15.5 113.5t48.5 117.5t98.5 98t151.5 39 q63 0 192 -9t193 -9q94 0 186 18q-29 -197 -29 -385v-713q0 -139 29 -286h115v-74z" />
<glyph horiz-adv-x="2048" />
<glyph horiz-adv-x="2048" />
<glyph unicode="&#xd;" horiz-adv-x="681" />
<glyph unicode=" "  horiz-adv-x="692" />
<glyph unicode="&#x09;" horiz-adv-x="692" />
<glyph unicode="&#xa0;" horiz-adv-x="692" />
<glyph unicode="!" horiz-adv-x="512" d="M381 1434q-39 -178 -49 -361l-39 -713h-74l-39 713q-10 182 -49 361h250zM362 49l-106 -61l-106 61v123l106 61l106 -61v-123z" />
<glyph unicode="&#x22;" horiz-adv-x="634" d="M252 1286l-49 -389h-74l-49 389v98l86 50l86 -50v-98zM553 1286l-49 -389h-74l-49 389v98l86 50l86 -50v-98z" />
<glyph unicode="#" horiz-adv-x="1277" d="M1147 395h-354l-93 -336h-122l92 336h-217l-91 -336h-122l90 336h-199v119h231l93 336h-324v119h354l93 336h122l-92 -336h217l90 336h123l-90 -336h199v-119h-232l-92 -336h324v-119zM793 850h-215l-93 -336h215z" />
<glyph unicode="$" horiz-adv-x="1146" d="M1081 393q0 -150 -106.5 -257t-272.5 -146v-140h-73v127q-49 -4 -74 -4q-12 0 -36.5 1t-37.5 1v-125h-73v132q-168 18 -342 81v259h65q0 -102 78 -170t199 -95v555q-301 131 -302 353q0 121 84 209t218 122v138h73v-123q37 6 74 6q25 0 74 -4v121h73v-129 q143 -18 275 -80v-258h-66q0 90 -58 157.5t-151 100.5v-488q176 -57 277.5 -135t101.5 -209zM895 287q0 139 -193 225v-449q86 27 139.5 85.5t53.5 138.5zM629 541l-74 22q-25 6 -74 23v-541q25 -4 74 -4q25 0 74 4v496zM408 1227q-150 -53 -150 -176q0 -131 150 -213v389z M629 1243q-37 6 -74 6t-74 -6v-440q49 -16 74 -23l74 -20v483z" />
<glyph unicode="%" horiz-adv-x="1757" d="M1530 1434l-1149 -1434h-154l1149 1434h154zM879 1081q0 -178 -111 -278.5t-297 -100.5q-184 0 -294.5 100.5t-110.5 278.5q0 176 110.5 276.5t294.5 100.5t296 -100.5t112 -276.5zM1692 354q0 -178 -111 -278.5t-297 -100.5q-184 0 -294.5 100.5t-110.5 278.5 q0 176 110.5 276.5t294.5 100.5t296 -100.5t112 -276.5zM709 1081.5q0 137.5 -60.5 220t-177.5 82.5q-115 0 -175 -82.5t-60 -220t60 -221.5t175 -84q117 0 177.5 84t60.5 221.5zM1522 354.5q0 137.5 -60.5 220t-177.5 82.5q-115 0 -175 -82.5t-60 -220t60 -221.5t175 -84 q117 0 177.5 84t60.5 221.5z" />
<glyph unicode="&#x26;" horiz-adv-x="1769" d="M1704 287q0 -127 -67.5 -219.5t-176.5 -92.5q-334 0 -463 148q-193 -147 -387 -148q-141 0 -263 42t-201.5 131.5t-79.5 205.5q0 78 33.5 143.5t100 118t133 88t161.5 76.5q-111 170 -111 383q0 127 100.5 211t237.5 84q129 0 222 -85t93 -210q0 -211 -309 -362l369 -486 q66 76 102 134q94 145 133 272q20 66 27 147h-201v74h547v-74h-113q-55 -45 -106 -104q-55 -63 -131 -195.5t-99 -165.5q-57 -86 -114 -147q78 -96 153.5 -151.5t165.5 -55.5q78 0 124 70.5t46 167.5h74zM963 1163q0 94 -72 157.5t-170 63.5q-90 0 -154.5 -64.5 t-64.5 -156.5q0 -74 178 -303q283 125 283 303zM950 180l-409 533q-102 -61 -164 -154.5t-62 -204.5q0 -125 86 -215t209 -90q170 0 340 131z" />
<glyph unicode="'" horiz-adv-x="331" d="M252 1286l-49 -389h-74l-49 389v98l86 50l86 -50v-98z" />
<glyph unicode="(" horiz-adv-x="589" d="M506 -463l-55 -49q-186 213 -285.5 477t-99.5 547t99 547t286 477l55 -49q-240 -457 -240 -975t240 -975z" />
<glyph unicode=")" horiz-adv-x="589" d="M506 512q0 -283 -99.5 -547t-285.5 -477l-55 49q240 457 239.5 975t-239.5 975l55 49q186 -213 285.5 -477t99.5 -547z" />
<glyph unicode="*" horiz-adv-x="1003" d="M502 1206l-64 -37l-137 140l-49 84l51 86h98l50 -84zM438 1096l-188 -49h-98l-50 86l50 86h98l188 -50v-73zM502 1059l-51 -189l-50 -84h-98l-51 86l49 84l137 140zM752 872l-50 -86h-100l-49 84l-51 189l63 37l137 -140zM901 1133l-49 -86h-98l-189 49v73l189 50h98z M752 1393l-50 -84l-137 -140l-63 37l51 189l49 84h100z" />
<glyph unicode="+" horiz-adv-x="1226" d="M1096 453h-424l2 -422h-119v422h-424v118h424v424h119v-424h422v-118z" />
<glyph unicode="," d="M344 49q0 -96 -47 -182t-129 -137l-39 61q117 76 137 213l-28 -16l-107 61v123l107 61l106 -61v-123z" />
<glyph unicode="-" horiz-adv-x="761" d="M696 362h-630v150h630v-150z" />
<glyph unicode="." d="M344 49l-106 -61l-107 61v123l107 61l106 -61v-123z" />
<glyph unicode="/" horiz-adv-x="770" d="M705 1434l-515 -1735h-124l514 1735h125z" />
<glyph unicode="0" horiz-adv-x="1146" d="M1081 471q0 -258 -122.5 -377t-385 -119t-385 119t-122.5 377t122.5 377t385 119t385 -119t122.5 -377zM868 471q0 215 -62.5 318.5t-232.5 103.5t-232 -103.5t-62 -318.5t62 -318.5t232 -103.5t232.5 103.5t62.5 318.5z" />
<glyph unicode="1" horiz-adv-x="733" d="M668 0h-602v74h172q29 147 28 286v222q0 41 -4 114q-98 -18 -196 -18v74q109 0 200.5 56t143.5 150l86 9q-29 -197 -29 -385v-222q0 -139 29 -286h172v-74z" />
<glyph unicode="2" horiz-adv-x="1003" d="M938 246l-74 -246h-798v111l436 276q113 72 168 135.5t55 163.5q0 90 -75 148.5t-179 58.5q-106 0 -180 -33t-74 -106q0 -70 29 -133h-152q-29 63 -28 133q0 115 116.5 164t288.5 49q193 0 330 -71t137 -210q0 -70 -30.5 -129t-91 -108.5t-117 -83t-138.5 -72.5 l-295 -141l465 26q115 8 133 68h74z" />
<glyph unicode="3" horiz-adv-x="1110" d="M1044 -43q0 -195 -134 -299t-355 -104q-201 0 -345 85t-144 240h200q0 -143 65.5 -197.5t223.5 -54.5q133 0 204.5 90t71.5 240q0 147 -71.5 237.5t-204.5 90.5h-205v73h168q113 0 176.5 73t63.5 196q0 121 -63.5 193.5t-176.5 72.5q-96 0 -165.5 -54.5t-69.5 -138.5 h-181q0 129 123 198t293 69q205 0 329 -85t124 -255q0 -106 -67.5 -191.5t-172.5 -107.5q137 -23 225 -128.5t88 -242.5z" />
<glyph unicode="4" horiz-adv-x="1212" d="M1147 0h-260v-27q0 -139 28 -286h152v-74h-561v74h151q29 131 29 286v27h-620v111l749 866h100q-29 -147 -28 -287v-543h260v-147zM686 147v598l-493 -598h493z" />
<glyph unicode="5" horiz-adv-x="1089" d="M1024 -20q0 -201 -131 -313.5t-348 -112.5t-348 77.5t-131 247.5h180q0 -135 73.5 -193.5t225.5 -58.5q133 0 199.5 96.5t66.5 256t-66.5 257t-199.5 97.5q-84 0 -175 -40t-149 -101h-76l48 632q4 29 22 48.5t45 19.5h471q41 0 70.5 20.5t29.5 53.5h74l-24 -174 q-8 -55 -29 -78t-72 -23h-522l-31 -395q152 111 318 111q217 0 348 -112.5t131 -315.5z" />
<glyph unicode="6" horiz-adv-x="1155" d="M1090 418q0 -211 -140.5 -327t-371.5 -116q-135 0 -254 74q-123 78 -190.5 211t-67.5 285q0 360 196.5 602t519.5 242q102 0 193 -50l-35 -65q-76 41 -158 41q-231 0 -351 -162t-144 -438q109 147 291 147q231 0 371.5 -116.5t140.5 -327.5zM877 418q0 168 -77 269 t-222.5 101t-222 -101t-76.5 -269q0 -166 76.5 -267.5t222 -101.5t222.5 101.5t77 267.5z" />
<glyph unicode="7" horiz-adv-x="1110" d="M1044 868l-499 -831q-119 -201 -15 -260l54 -31v-123l-107 -61l-106 61v62q0 209 104 393l379 663h-625q-82 0 -90 -139h-73l24 340h954v-74z" />
<glyph unicode="8" horiz-adv-x="1130" d="M1065 403q0 -205 -137 -316.5t-362.5 -111.5t-362.5 112t-137 316q0 156 81.5 260.5t227.5 143.5q-219 68 -219 278q0 152 112.5 228t297 76t297 -76t112.5 -228q0 -211 -219 -278q145 -39 227 -143.5t82 -260.5zM774 1085.5q0 104.5 -55 167t-153.5 62.5t-154 -62.5 t-55.5 -167t55.5 -167t154 -62.5t153.5 62.5t55 167zM852 403.5q0 159.5 -73.5 257t-213 97.5t-213 -97.5t-73.5 -257t73.5 -257t213 -97.5t213 97.5t73.5 257z" />
<glyph unicode="9" horiz-adv-x="1155" d="M1090 397q0 -360 -197 -601.5t-520 -241.5q-102 0 -193 49l35 65q76 -41 158 -41q231 0 351 162t144 438q-109 -147 -290 -147q-231 0 -371.5 116.5t-140.5 327.5t140 327t372 116q135 0 253 -74q123 -78 191 -211t68 -285zM877 524q0 166 -77 267.5t-222.5 101.5 t-222 -101.5t-76.5 -267.5q0 -168 76.5 -269t222 -101t222.5 101t77 269z" />
<glyph unicode=":" d="M344 49l-106 -61l-107 61v123l107 61l106 -61v-123zM344 770l-106 -61l-107 61v123l107 61l106 -61v-123z" />
<glyph unicode=";" d="M344 49q0 -96 -47 -182t-129 -137l-39 61q117 76 137 213l-28 -16l-107 61v123l107 61l106 -61v-123zM344 770l-106 -61l-107 61v123l107 61l106 -61v-123z" />
<glyph unicode="&#x3c;" horiz-adv-x="1200" d="M1069 -174l-938 637v98l938 637v-143l-799 -543l799 -543v-143z" />
<glyph unicode="=" horiz-adv-x="1226" d="M1096 631h-965v119h965v-119zM1096 274h-965v119h965v-119z" />
<glyph unicode="&#x3e;" horiz-adv-x="1200" d="M1069 463l-938 -637v143l799 543l-799 543v143l938 -637v-98z" />
<glyph unicode="?" horiz-adv-x="962" d="M897 1147q0 -63 -30.5 -118.5t-78 -95.5t-101.5 -84t-101 -84t-78 -95.5t-31 -118.5v-191h-74v191q0 160 132 315q12 14 43.5 49t47 55.5t36 52.5t29.5 61.5t9 62.5q0 92 -77.5 152.5t-182.5 60.5q-98 0 -160.5 -85t-62.5 -200h-151q0 92 22 150q41 100 137.5 154.5 t214.5 54.5q186 0 321.5 -74t135.5 -213zM547 49l-107 -61l-106 61v123l106 61l107 -61v-123z" />
<glyph unicode="@" horiz-adv-x="1564" d="M1499 717q0 -180 -107.5 -312.5t-271.5 -132.5q-125 0 -157 109q-74 -109 -193 -109q-197 0 -341 114t-144 288q0 184 151.5 335.5t333.5 151.5q115 0 193 -67l-9 45h191q-25 -123 -25 -252v-309q0 -47 1 -73t5 -62.5t15.5 -54t29.5 -17.5q117 0 185.5 103.5t68.5 242.5 q0 266 -188 454.5t-454.5 188.5t-455 -188.5t-188.5 -454.5t188.5 -454.5t454.5 -188.5q213 0 379 125l45 -60q-188 -139 -424 -139q-297 0 -506.5 210t-209.5 507t209.5 507t506.5 210t507 -210t210 -507zM965 623v327q0 66 -58.5 106t-138.5 40q-90 0 -161.5 -78 t-103.5 -172t-32 -172q0 -172 62.5 -254t209.5 -82q98 0 160 85t62 200z" />
<glyph unicode="A" horiz-adv-x="1570" d="M1550 0h-546v74h120q-37 145 -102 286l-55 125h-545l-51 -125q-59 -141 -90 -286h120v-74h-378v74h120q88 141 148 286l321 787q59 143 103 315h82q43 -154 114 -315l359 -787q66 -143 160 -286h120v-74zM932 559l-252 555l-229 -555h481z" />
<glyph unicode="B" horiz-adv-x="1392" d="M1327 395q0 -141 -83 -232t-213 -127t-306 -36h-659v74h151q29 147 29 286v713q0 139 -29 287h-151v74h620q539 0 539 -347q0 -244 -271 -315q373 -70 373 -377zM1012 1075.5q0 143.5 -106.5 214t-282.5 70.5h-99q-29 -147 -28 -287v-282h127q176 0 282.5 70.5t106.5 214 zM1085 395q0 162 -120.5 242t-317.5 80h-151v-357q0 -139 28 -286h123q197 0 317.5 79.5t120.5 241.5z" />
<glyph unicode="C" horiz-adv-x="1548" d="M1483 72q-260 -100 -531 -101q-401 0 -643.5 193.5t-242.5 552t242.5 552t643.5 193.5q270 0 531 -100v-287h-74q0 145 -136 229.5t-321 84.5q-262 0 -441 -199t-179 -473.5t179 -473t441 -198.5q184 0 320.5 84t136.5 229h74v-286z" />
<glyph unicode="D" horiz-adv-x="1802" d="M1737 717q0 -342 -229.5 -529.5t-606.5 -187.5h-835v74h151q29 147 29 286v713q0 139 -29 287h-151v74h835q377 0 606.5 -187.5t229.5 -529.5zM1470 717q0 266 -188 454.5t-455 188.5h-303q-29 -147 -28 -287v-713q0 -139 28 -286h303q266 0 454.5 188.5t188.5 454.5z " />
<glyph unicode="E" horiz-adv-x="1400" d="M1335 0h-1269v74h151q29 147 29 286v713q0 139 -29 287h-151v74h1151v-359h-74q0 115 -58.5 200t-154.5 85h-406q-29 -147 -28 -287v-282h424q45 0 77.5 26.5t32.5 67.5v57h74v-377h-74v58q0 41 -32.5 67.5t-77.5 26.5h-424v-357q0 -139 28 -286h525q96 0 154.5 85 t58.5 199h73v-358z" />
<glyph unicode="F" horiz-adv-x="1310" d="M1245 1075h-74q0 115 -58 200t-155 85h-434q-29 -147 -28 -287v-282h436q45 0 77.5 26.5t32.5 67.5v57h74v-377h-74v58q0 41 -32.5 67.5t-77.5 26.5h-436v-357q0 -139 28 -286h152v-74h-610v74h151q29 147 29 286v713q0 139 -29 287h-151v74h1179v-359z" />
<glyph unicode="G" horiz-adv-x="1740" d="M1708 514h-152q-29 -147 -28 -287v-118q-225 -137 -567 -138q-403 0 -649 193.5t-246 552t245.5 552t649.5 193.5q279 0 544 -100v-287h-73q0 147 -140.5 230.5t-330.5 83.5q-264 0 -446.5 -199t-182.5 -473.5t182 -473t447 -198.5q174 0 317 92v90q0 139 -29 287h-151 v74h610v-74z" />
<glyph unicode="H" horiz-adv-x="1810" d="M1745 0h-610v74h151q29 147 29 286v357h-819v-357q0 -139 28 -286h152v-74h-610v74h151q29 147 29 286v713q0 139 -29 287h-151v74h610v-74h-152q-29 -147 -28 -287v-282h819v282q0 139 -29 287h-151v74h610v-74h-152q-29 -147 -28 -287v-713q0 -139 28 -286h152v-74z " />
<glyph unicode="I" horiz-adv-x="741" d="M676 0h-610v74h151q29 147 29 286v713q0 139 -29 287h-151v74h610v-74h-152q-29 -147 -28 -287v-713q0 -139 28 -286h152v-74z" />
<glyph unicode="J" horiz-adv-x="1118" d="M1053 1360h-152q-29 -147 -29 -287v-817q0 -147 -114.5 -216t-304.5 -69q-164 0 -241 37t-179 164v84h250v-104q0 -51 50 -79t119.5 -28t120 27.5t50.5 79.5v921q0 139 -29 287h-152v74h611v-74z" />
<glyph unicode="K" horiz-adv-x="1538" d="M1516 -14h-166q-160 0 -228.5 50t-81.5 193l-20 244q-6 68 -25.5 114t-48 71.5t-82 39t-104.5 16.5t-139 3h-125v-357q0 -139 28 -286h152v-74h-610v74h151q29 147 29 286v713q0 139 -29 287h-151v74h610v-74h-152q-29 -147 -28 -287v-282h41q281 0 399 184 q14 23 26.5 50.5t19.5 48t18.5 56t17.5 52.5q25 80 69 178h-100v74h418v-74h-76q-137 0 -227 -215q-66 -158 -107 -213q-70 -98 -178 -152q457 -49 481 -334l17 -194q6 -80 51 -136.5t113 -56.5h37v-73z" />
<glyph unicode="L" horiz-adv-x="1400" d="M1335 0h-1269v74h151q29 147 29 286v713q0 139 -29 287h-151v74h610v-74h-152q-29 -147 -28 -287v-713q0 -139 28 -286h525q96 0 154.5 85t58.5 199h73v-358z" />
<glyph unicode="M" horiz-adv-x="2019" d="M1954 0h-611v74h152q29 147 29 286v713q0 72 -11 168l-448 -954q-70 -147 -107 -287h-73q-41 150 -105 287l-450 964q-10 -98 -11 -178v-713q0 -139 29 -286h152v-74h-434v74h151q29 147 29 286v713q0 139 -29 287h-151v74h485q41 -150 104 -287l365 -782l369 782 q70 147 106 287h459v-74h-152q-29 -147 -28 -287v-713q0 -139 28 -286h152v-74z" />
<glyph unicode="N" horiz-adv-x="1810" d="M1778 1360h-152q-29 -147 -29 -287v-1073h-124l-1131 1323q-23 -131 -23 -250v-713q0 -139 29 -286h152v-74h-434v74h151q29 147 29 286v713q0 139 -29 287h-151v74h538q100 -156 215 -287l705 -823v749q0 139 -29 287h-152v74h435v-74z" />
<glyph unicode="O" horiz-adv-x="1789" d="M1724 717q0 -350 -226 -548t-603 -198t-603 198t-226 548t226 547.5t603 197.5t603 -197.5t226 -547.5zM1458 716.5q0 272.5 -160.5 472.5t-402.5 200t-402.5 -200t-160.5 -472.5t160.5 -472t402.5 -199.5t402.5 199.5t160.5 472z" />
<glyph unicode="P" horiz-adv-x="1314" d="M1249 1012q0 -213 -157.5 -318.5t-415.5 -105.5h-180v-228q0 -139 28 -286h152v-74h-610v74h151q29 147 29 286v713q0 139 -29 287h-151v74h610q258 0 415.5 -105.5t157.5 -316.5zM1010 1012q0 160 -98.5 254t-264.5 94h-123q-29 -147 -28 -287v-411h151q166 0 264.5 94 t98.5 256z" />
<glyph unicode="Q" horiz-adv-x="1789" d="M1724 717q0 -309 -178 -500.5t-485 -234.5q68 -18 135 -60q20 -14 81.5 -59t107 -66.5t94.5 -21.5q76 0 129 59l43 -59q-106 -74 -230 -74h-227q-47 0 -94 26.5t-75 56.5t-69 81q-57 78 -104 106q-358 12 -572 209t-214 537q0 350 226 547.5t603 197.5t603 -197.5 t226 -547.5zM1458 716.5q0 272.5 -160.5 472.5t-402.5 200t-402.5 -200t-160.5 -472.5t160.5 -472t402.5 -199.5t402.5 199.5t160.5 472z" />
<glyph unicode="R" horiz-adv-x="1423" d="M1401 -14h-166q-131 0 -195.5 56t-74.5 183l-21 238q-12 143 -101 191t-274 48h-73v-342q0 -139 28 -286h152v-74h-610v74h151q29 147 29 286v713q0 139 -29 287h-151v74h610q573 0 573 -365q0 -270 -321 -336q250 -74 266 -272l18 -215q6 -76 47 -131.5t105 -55.5h37 v-73zM1010 1069q0 141 -99.5 216t-263.5 75h-123q-29 -147 -28 -287v-297h151q164 0 263.5 75t99.5 218z" />
<glyph unicode="S" horiz-adv-x="1253" d="M1194 436q0 -205 -174 -335t-410 -130q-279 0 -544 101v286h73q0 -147 140.5 -230t330.5 -83q154 0 265.5 74t111.5 198q0 66 -33.5 118t-100.5 88t-126 57.5t-149 44.5q-199 53 -332 166.5t-133 279.5q0 178 158.5 284.5t375.5 106.5q225 0 432 -100v-287h-73 q0 133 -106.5 223.5t-252.5 90.5q-152 0 -260 -55.5t-108 -166.5q0 -205 364 -301q115 -31 200 -62.5t172 -81.5t133 -123t46 -163z" />
<glyph unicode="T" horiz-adv-x="1679" d="M1614 1075h-74q0 115 -58.5 200t-154.5 85h-334q-29 -147 -28 -287v-713q0 -139 28 -286h152v-74h-610v74h151q29 147 29 286v713q0 139 -29 287h-334q-96 0 -154.5 -85t-58.5 -200h-73v359h1548v-359z" />
<glyph unicode="U" horiz-adv-x="1622" d="M1589 1360h-151q-29 -147 -29 -287v-713q0 -229 -144.5 -307t-453.5 -78q-598 0 -598 385v713q0 139 -29 287h-151v74h610v-74h-151q-29 -147 -29 -287v-713q0 -139 123 -225t288 -86q236 0 348.5 64.5t112.5 246.5v713q0 139 -28 287h-152v74h434v-74z" />
<glyph unicode="V" horiz-adv-x="1599" d="M1579 1360h-121q-94 -152 -149 -287l-301 -713q-82 -186 -138 -389h-139q-55 203 -137 389l-301 713q-55 135 -150 287h-120v74h571v-74h-121q35 -150 92 -287l332 -784l332 784q57 137 92 287h-121v74h379v-74z" />
<glyph unicode="W" horiz-adv-x="2484" d="M2462 1360h-92q-94 -158 -148 -287l-297 -713q-82 -201 -133 -389h-139q-51 188 -133 389l-277 666l-276 -666q-84 -199 -133 -389h-142q-59 211 -133 389l-297 713q-59 145 -147 287h-92v74h512v-74h-93q37 -160 90 -287l326 -780l324 780l20 47q-53 121 -127 240h-92 v74h512v-74h-92q31 -145 90 -287l326 -780l323 780q59 141 90 287h-90v74h320v-74z" />
<glyph unicode="X" horiz-adv-x="1622" d="M1589 0h-663v74h151q-74 143 -172 286l-172 248l-196 -248q-106 -133 -201 -286h151v-74h-454v74h151q135 131 258 286l248 312l-278 401q-106 156 -228 287h-151v74h663v-74h-151q74 -143 172 -287l135 -196l158 196q106 133 200 287h-151v74h454v-74h-151 q-135 -131 -258 -287l-207 -260l313 -453q106 -156 228 -286h151v-74z" />
<glyph unicode="Y" horiz-adv-x="1599" d="M1579 1360h-113q-250 -176 -405 -440q-135 -229 -135 -443v-117q0 -139 28 -286h152v-74h-610v74h151q29 147 29 286v117q0 252 -199 531q-150 205 -354 352h-100v74h673v-74h-151q55 -98 135 -207q117 -162 172 -303q29 -78 41 -133q39 129 104 239q66 115 166 232 q123 139 123 172h-166v74h459v-74z" />
<glyph unicode="Z" horiz-adv-x="1531" d="M1466 0h-1400v98q199 80 321 260l594 859q43 63 137 143h-696q-96 0 -154.5 -85t-58.5 -200h-74v359h1295v-99q-141 -111 -244 -260l-592 -858q-53 -78 -137 -143h723q96 0 154.5 85t58.5 199h73v-358z" />
<glyph unicode="[" horiz-adv-x="454" d="M389 -512h-323v2048h323v-74h-190v-1900h190v-74z" />
<glyph unicode="\" horiz-adv-x="770" d="M705 -225h-125l-514 1659h124z" />
<glyph unicode="]" horiz-adv-x="454" d="M389 -512h-323v74h190v1900h-190v74h323v-2048z" />
<glyph unicode="^" horiz-adv-x="1257" d="M1186 717h-144l-413 610l-414 -610h-143l485 717h143z" />
<glyph unicode="_" horiz-adv-x="1257" d="M1257 -225h-1257v119h1257v-119z" />
<glyph unicode="`" horiz-adv-x="1024" d="M690 1104h-121l-415 278v52h252q96 -203 284 -330z" />
<glyph unicode="a" horiz-adv-x="1126" d="M1094 0h-172q-102 0 -150 80q-139 -104 -297 -105q-184 0 -296.5 78t-112.5 231.5t112.5 230.5t296.5 77q152 0 275 -96v237q0 80 -57.5 120t-153.5 40q-252 0 -252 -160h-160q0 121 120 177.5t292 56.5q184 0 297.5 -77t113.5 -231v-516q0 -33 18.5 -49t40 -18t72.5 -2 h13v-74zM750 158v264q-115 96 -267 96q-90 0 -153.5 -69.5t-63.5 -163.5q0 -96 62.5 -166t154.5 -70q68 0 143 31t124 78z" />
<glyph unicode="b" horiz-adv-x="1316" d="M1229 471q0 -231 -146.5 -363.5t-390.5 -132.5q-170 0 -276 101l12 -101q-182 25 -362 25v74h114q29 147 29 286v713q0 139 -29 287h-114v74q188 0 372 24q-29 -197 -28 -385v-217q121 111 282 111q244 0 390.5 -132.5t146.5 -363.5zM1016 471.5q0 190.5 -95.5 306 t-267.5 115.5q-152 0 -243 -119v-520q0 -90 78.5 -147.5t185.5 -57.5q166 0 254 116t88 306.5z" />
<glyph unicode="c" horiz-adv-x="1091" d="M1026 123q-172 -147 -405 -148q-242 0 -387.5 132.5t-145.5 363.5t145.5 363.5t387.5 132.5q180 0 348 -66v-190h-101q0 82 -73.5 132t-173.5 50q-160 0 -240 -115.5t-80 -306t80 -306.5t240 -116q135 0 233 56.5t98 160.5h74v-143z" />
<glyph unicode="d" horiz-adv-x="1316" d="M1251 0q-182 0 -362 -25l12 101q-106 -100 -276 -101q-244 0 -390.5 132.5t-146.5 363.5t146.5 363.5t390.5 132.5q162 0 282 -111v217q0 139 -28 287h-115v74q188 0 373 24q-29 -197 -29 -385v-713q0 -139 29 -286h114v-74zM907 254v520q-106 119 -264 119 q-166 0 -254 -115.5t-88 -306t95.5 -306.5t267.5 -116q100 0 171.5 58.5t71.5 146.5z" />
<glyph unicode="e" horiz-adv-x="1091" d="M1026 188q-111 -127 -205 -170t-264 -43q-217 0 -343 135.5t-126 360.5t126 360.5t343 135.5q193 0 331 -128t138 -315q-137 29 -301 29h-422q-2 -27 -2 -82q0 -170 83 -295t220 -125q127 0 209 42t158 145zM813 627q0 123 -68.5 194.5t-187.5 71.5q-203 0 -246 -266h502 z" />
<glyph unicode="f" horiz-adv-x="679" d="M807 1255h-168q0 53 -24.5 91t-67.5 38q-57 0 -98 -37.5t-41 -91.5q0 -63 14 -157q12 -102 12 -156h180v-74h-180v-508q0 -139 29 -286h151v-74h-548v74h139q29 147 28 286v508h-167v74h167v148q0 55 15.5 113.5t48.5 117.5t98.5 98t151.5 39q96 0 143 -18.5t117 -83.5 v-101z" />
<glyph unicode="g" horiz-adv-x="1181" d="M1116 -188q0 -76 -44 -126.5t-124 -74t-159.5 -31.5t-186.5 -8h-106.5t-92 3t-84 8t-68.5 15.5t-59.5 25t-43 36t-35 50t-18.5 67.5t-7 86v24h274v-73h-86q-29 -29 -28 -68q0 -35 29.5 -57.5t92 -30.5t106.5 -10t126 -2q354 0 354 166q0 47 -20.5 78.5t-49 48t-81.5 24.5 t-93 10t-110 2q-248 0 -381 126t-133 370q0 238 114.5 367t338.5 129q96 0 176 -25h399v-123h-37q-86 68 -194 68h-49q158 -109 157 -322q0 -190 -124 -295.5t-328 -105.5q-154 0 -250 125q0 -133 76.5 -186.5t234.5 -53.5q84 0 133 -2t118 -8t108.5 -21.5t79.5 -41 t57.5 -67.5t17.5 -97zM793 565.5q0 147.5 -63.5 237.5t-188.5 90t-188.5 -90t-63.5 -237.5t63.5 -237.5t188.5 -90t188.5 90t63.5 237.5z" />
<glyph unicode="h" horiz-adv-x="1318" d="M1253 0h-487v74h115q29 147 28 286v353q0 68 -58 110.5t-138 42.5q-92 0 -173 -46t-130 -124v-336q0 -139 28 -286h115v-74h-487v74h114q29 147 29 286v713q0 139 -29 287h-114v74q188 0 372 24q-29 -197 -28 -385v-266q137 160 350 160t350 -160v-447q0 -139 29 -286 h114v-74z" />
<glyph unicode="i" horiz-adv-x="618" d="M553 0h-487v74h114q29 147 29 286v222q0 139 -29 286h-114v74q188 0 372 25q-29 -197 -28 -385v-222q0 -139 28 -286h115v-74zM416 1208l-107 -61l-106 61v123l106 62l107 -62v-123z" />
<glyph unicode="j" horiz-adv-x="618" d="M438 967q-29 -197 -28 -385v-582q0 -162 -113 -276.5t-272 -114.5q-57 0 -98.5 37t-49.5 92v129h100q0 -184 93 -184q70 0 104.5 66.5t34.5 160.5v672q0 139 -29 286h-114v74q188 0 372 25zM416 1208l-107 -61l-106 61v123l106 62l107 -62v-123z" />
<glyph unicode="k" horiz-adv-x="1232" d="M1167 0h-180q-82 0 -146.5 57.5t-84.5 141.5q-4 18 -9.5 53t-7.5 47q-20 86 -83.5 142.5t-145.5 56.5h-100v-138q0 -139 28 -286h115v-74h-487v74h114q29 147 29 286v713q0 139 -29 287h-114v74q188 0 372 24q-29 -197 -28 -385v-502q53 0 111.5 25t94 50.5t95.5 72.5 q100 84 100 149h-115v74h414v-74h-57q-25 0 -45.5 -3t-42 -15t-33.5 -18.5t-33.5 -28t-29 -28.5t-33 -35.5t-31.5 -34.5q-82 -88 -166 -140q125 -14 200.5 -64t94.5 -157q31 -170 63 -219q37 -51 97 -51h73v-74z" />
<glyph unicode="l" horiz-adv-x="618" d="M553 0h-487v74h114q29 147 29 286v713q0 139 -29 287h-114v74q188 0 372 24q-29 -197 -28 -385v-713q0 -139 28 -286h115v-74z" />
<glyph unicode="m" horiz-adv-x="2023" d="M1958 0h-488v74h115q29 147 29 286v353q0 68 -59.5 110.5t-139.5 42.5q-92 0 -173 -46t-130 -124v-336q0 -139 29 -286h114v-74h-487v74h115q29 147 28 286v353q0 68 -59 110.5t-139 42.5q-92 0 -173 -46t-130 -124v-336q0 -139 28 -286h115v-74h-487v74h114 q29 147 29 286v222q0 139 -29 286h-114v74q188 0 372 25l-28 -160q137 160 352 160q213 0 350 -160q137 160 352 160q213 0 351 -160v-447q0 -139 28 -286h115v-74z" />
<glyph unicode="n" horiz-adv-x="1318" d="M1253 0h-487v74h115q29 147 28 286v353q0 68 -58 110.5t-138 42.5q-92 0 -173 -46t-130 -124v-336q0 -139 28 -286h115v-74h-487v74h114q29 147 29 286v222q0 139 -29 286h-114v74q188 0 372 25l-28 -160q137 160 350 160t350 -160v-447q0 -139 29 -286h114v-74z" />
<glyph unicode="o" horiz-adv-x="1218" d="M1153 471q0 -231 -145.5 -363.5t-387 -132.5t-387 132.5t-145.5 363.5t145.5 363.5t387 132.5t387 -132.5t145.5 -363.5zM940 471.5q0 190.5 -80 306t-239.5 115.5t-239.5 -115.5t-80 -306t80 -306.5t239.5 -116t239.5 116t80 306.5z" />
<glyph unicode="p" horiz-adv-x="1316" d="M1229 471q0 -231 -146.5 -363.5t-390.5 -132.5q-162 0 -282 111v-145q0 -139 28 -287h115v-74h-487v74h114q29 147 29 287v641q0 139 -29 286h-114v74q188 0 372 25l-12 -90q106 90 266 90q244 0 390.5 -132.5t146.5 -363.5zM1016 471.5q0 190.5 -88 306t-254 115.5 q-106 0 -185 -57.5t-79 -147.5v-520q92 -119 243 -119q172 0 267.5 116t95.5 306.5z" />
<glyph unicode="q" horiz-adv-x="1316" d="M1251 -420h-487v74h115q29 147 28 287v145q-121 -111 -282 -111q-244 0 -390.5 132.5t-146.5 363.5t146.5 363.5t390.5 132.5q160 0 266 -90l-12 90q184 -25 372 -25v-74h-114q-29 -147 -29 -286v-641q0 -139 29 -287h114v-74zM907 168v520q0 88 -71.5 146.5t-171.5 58.5 q-172 0 -267.5 -115.5t-95.5 -306t88 -306.5t254 -116q158 0 264 119z" />
<glyph unicode="r" horiz-adv-x="925" d="M877 707h-181q0 162 -71 161q-96 0 -155.5 -108.5t-59.5 -235.5v-164q0 -139 28 -286h172v-74h-544v74h114q29 147 29 286v222q0 139 -29 286h-114v74q188 0 372 25q-16 -117 -20 -181q29 70 103.5 125.5t144.5 55.5q86 0 148.5 -56.5t62.5 -138.5v-65z" />
<glyph unicode="s" horiz-adv-x="954" d="M905 281q0 -141 -128 -223.5t-304 -82.5q-207 0 -407 66v254h73q0 -111 99.5 -178.5t234.5 -67.5q313 0 313 164q0 47 -26.5 80t-80.5 49t-98 24.5t-118 14.5q-154 14 -263.5 90t-109.5 201q0 131 114.5 213t268.5 82q172 0 334 -66v-190h-74q0 84 -77.5 133t-182.5 49 q-109 0 -186.5 -38t-77.5 -116q0 -133 274 -159q176 -16 299 -91t123 -208z" />
<glyph unicode="t" horiz-adv-x="704" d="M639 49q-106 -74 -229 -74q-104 0 -167 40t-63 124v729h-114v74h114v102q23 0 73 40t54 63h74v-205h258v-74h-258v-639q0 -63 27.5 -109t74.5 -46q70 0 119 49h37v-74z" />
<glyph unicode="u" horiz-adv-x="1275" d="M1210 0q-188 0 -372 -25l28 160q-137 -160 -350 -160t-350 160v447q0 139 -29 286h-114v74q188 0 372 25q-29 -197 -28 -385v-353q0 -68 58 -110.5t138 -42.5q92 0 173 46t130 124v336q0 139 -28 286h-115v74q188 0 373 25q-29 -197 -29 -385v-222q0 -139 29 -286h114 v-74z" />
<glyph unicode="v" horiz-adv-x="1189" d="M1169 868h-114q-92 -141 -154 -286l-96 -222q-80 -174 -129 -360h-158q-53 186 -129 360l-98 222q-61 145 -154 286h-114v74h505v-74h-114q41 -160 96 -286l156 -355l153 355q61 137 99 286h-115v74h366v-74z" />
<glyph unicode="w" horiz-adv-x="1912" d="M1847 868h-57q-68 -137 -45 -286q33 -238 -102.5 -422.5t-352.5 -184.5q-90 0 -172 25h-200v135q-141 -160 -354.5 -160t-354.5 160v447q0 139 -29 286h-114v74q188 0 372 25q-29 -197 -28 -385v-353q0 -68 60 -110.5t140 -42.5q94 0 176 46t132 124v336q0 139 -29 286 h-115v74q188 0 373 25q-29 -197 -29 -385v-336q0 -80 49.5 -138.5t122.5 -58.5q174 0 273.5 163t68.5 370q-23 164 -127 286h-114v74h456v-74z" />
<glyph unicode="x" horiz-adv-x="1277" d="M1212 0h-499v74h92q-92 147 -205 286l-18 23l-90 -109q-80 -100 -136 -200h138v-74h-428v74h137q109 96 192 200l140 166l-115 142q-123 152 -262 286h-92v74h499v-74h-92q92 -147 193 -270l57 70q80 100 135 200h-115v74h383v-74h-114q-98 -86 -193 -200l-106 -127 l145 -181q123 -152 262 -286h92v-74z" />
<glyph unicode="y" horiz-adv-x="1189" d="M1102 967q-29 -197 -29 -385v-394q0 -266 -194.5 -452.5t-468.5 -186.5q-137 0 -234.5 51.5t-97.5 151.5q0 96 70.5 158.5t195.5 112.5q-84 47 -135 112v447q0 139 -29 286h-114v74q188 0 372 25q-29 -197 -28 -385v-353q0 -66 52 -109.5t124 -43.5q90 0 167.5 48 t118.5 128v330q0 139 -28 286h-115v74q189 0 373 25zM872 135q-127 -160 -331 -160q-80 0 -148 27q-84 -23 -139 -91.5t-55 -158.5q0 -63 62.5 -96t148.5 -33q145 0 270 64q192 94 192 448z" />
<glyph unicode="z" horiz-adv-x="958" d="M893 0h-827v92q102 33 149 123l338 608q16 29 33 45h-221q-119 0 -166 -47t-47 -166h-74v287h778v-92q-84 -41 -127 -123l-338 -608q-14 -29 -31 -45h246q119 0 166 47t47 166h74v-287z" />
<glyph unicode="{" horiz-adv-x="688" d="M623 -512q-150 0 -259.5 76t-109.5 198v512q0 82 -54.5 141.5t-133.5 59.5v74q80 0 134 59.5t54 141.5v512q0 123 109.5 198.5t259.5 75.5v-74q-96 0 -166 -57t-70 -143v-512q0 -78 -43 -140.5t-117 -97.5q74 -35 117 -97.5t43 -140.5v-512q0 -86 69.5 -143t166.5 -57 v-74z" />
<glyph unicode="|" horiz-adv-x="1196" d="M657 -453h-118v1930h118v-1930z" />
<glyph unicode="}" horiz-adv-x="688" d="M623 475q-78 0 -131.5 -59.5t-53.5 -141.5v-512q0 -123 -110.5 -198.5t-261.5 -75.5v74q96 0 167.5 57t71.5 143v512q0 78 43 140.5t115 97.5q-72 35 -115 97.5t-43 140.5v512q0 86 -71.5 143t-167.5 57v74q152 0 262 -76t110 -198v-512q0 -82 53.5 -141.5t131.5 -59.5 v-74z" />
<glyph unicode="~" horiz-adv-x="1155" d="M1090 596q-76 -90 -120 -139t-117 -103.5t-124 -54.5q-45 0 -93 27.5t-82 59.5t-82 59.5t-93 27.5q-51 0 -101.5 -29.5t-80 -59.5t-74.5 -85l-57 47q76 90 119.5 139.5t116.5 103.5t124 54q45 0 93 -27.5t82 -59.5t82 -59.5t93 -27.5q51 0 101.5 29.5t80 59.5t74.5 85z " />
<glyph unicode="&#xa1;" horiz-adv-x="512" d="M381 -492h-250q39 178 49 361l39 713h74l39 -713q10 -183 49 -361zM362 770l-106 -61l-106 61v123l106 61l106 -61v-123z" />
<glyph unicode="&#xa2;" horiz-adv-x="1091" d="M1026 123q-162 -135 -369 -146v-127h-73v125q-227 10 -361.5 142.5t-134.5 353.5t134 353t362 143v125h73v-125q158 -6 312 -66v-190h-101q0 74 -61.5 122t-149.5 58v-840q123 6 209 62.5t86 152.5h74v-143zM584 891q-141 -12 -212 -127t-71 -293t70.5 -293t212.5 -127 v840z" />
<glyph unicode="&#xa3;" horiz-adv-x="1392" d="M1327 279q0 -166 -109.5 -285t-269.5 -119q-31 0 -59.5 4t-59 17.5t-51 22.5t-54.5 31.5t-47 32t-53 39t-49 35.5q-115 -94 -315 -94q-78 0 -136 43t-58 110.5t58 110.5t136 43q100 0 232 -51v14q0 53 -11.5 117t-23 105t-36 117.5t-32.5 107.5h-287v74h267 q-25 104 -25 188q0 203 139.5 347.5t339.5 144.5q168 0 291 -84t123 -222v-122l-107 -62l-106 62v122l106 62q0 88 -90 129t-217 41q-131 0 -204.5 -124t-73.5 -294q0 -86 20 -188h309v-74h-292q6 -27 26.5 -106.5t28.5 -119.5t17.5 -103.5t9.5 -117.5q0 -37 -15 -79 q182 -78 299 -78q125 0 215 53t90 150h74zM463 135q-109 61 -203 62q-49 0 -85 -21.5t-36 -58.5t36 -58.5t85 -21.5q137 0 203 98z" />
<glyph unicode="&#xa4;" horiz-adv-x="1286" d="M1057 213l-84 -84l-94 92q-100 -84 -236 -84q-106 0 -203 60l-67 -68l-84 84l63 63q-84 100 -84 235.5t84 236.5l-63 63l84 84l67 -68q96 59 203 60q135 0 236 -84l94 92l84 -84l-99 -96q59 -96 59.5 -202.5t-59.5 -203.5zM899 512q0 106 -74.5 181t-181 75t-181.5 -75 t-75 -181t75 -181t181.5 -75t181 75t74.5 181z" />
<glyph unicode="&#xa5;" horiz-adv-x="1622" d="M1589 1360h-112q-250 -176 -406 -440l-18 -33h225v-74h-262q-70 -152 -78 -295h340v-74h-342v-84q0 -139 29 -286h151v-74h-610v74h151q29 147 29 286v84h-342v74h340q-8 145 -80 295h-260v74h221q-33 59 -78 121q-150 205 -354 352h-100v74h674v-74h-152 q55 -98 135 -207q104 -145 156 -266h125q18 41 37 69q66 115 166 232q123 139 122 172h-166v74h459v-74zM938 813h-64q14 -37 29 -96q19 57 35 96z" />
<glyph unicode="&#xa6;" horiz-adv-x="380" d="M250 0h-119v492h119v-492zM250 942h-119v492h119v-492z" />
<glyph unicode="&#xa7;" horiz-adv-x="1032" d="M967 258q0 -201 -136.5 -374t-314.5 -173q-135 0 -213 24.5t-188 102.5v125h125q0 -86 81.5 -132t194.5 -46q106 0 203 74q14 25 14 51q0 57 -24.5 104t-70.5 86t-91 67t-110.5 64.5t-102.5 63.5q-127 86 -197.5 226.5t-70.5 297.5q0 201 136 373t314 172 q135 0 213 -24.5t189 -100.5v-127h-125q0 86 -82 132t-195 46q-106 0 -203 -73q-14 -25 -14 -52q0 -57 24.5 -104t70.5 -85t91 -66.5t111 -64.5t102 -63q127 -88 198 -227t71 -297zM868 133q0 279 -276 494q-29 23 -100.5 74t-109.5 81.5t-85 79.5t-68.5 101.5t-21.5 111.5 q0 4 1 12.5t1 10.5q-45 -74 -45 -156q0 -279 276 -493q31 -23 101.5 -74t108.5 -82t85 -79t68.5 -101.5t21.5 -112.5q0 -4 -1 -11t-1 -12q45 78 45 156z" />
<glyph unicode="&#xa8;" horiz-adv-x="1024" d="M412 1214l-97 -55l-96 55v111l96 55l97 -55v-111zM772 1214l-96 -55l-96 55v111l96 55l96 -55v-111z" />
<glyph unicode="&#xa9;" horiz-adv-x="1564" d="M1499 717q0 -297 -210 -507t-507 -210t-506.5 210t-209.5 507t209.5 507t506.5 210t507 -210t210 -507zM1425 717q0 266 -188 454.5t-454.5 188.5t-455 -188.5t-188.5 -454.5t188.5 -454.5t455 -188.5t454.5 188.5t188 454.5zM1135 317q-162 -63 -330 -63 q-248 0 -398.5 121t-150.5 342t150.5 342t398.5 121q168 0 330 -64v-178h-45q0 92 -84 143.5t-201 51.5q-162 0 -272.5 -123t-110.5 -293t110.5 -293t272.5 -123q117 0 201 51t84 142h45v-177z" />
<glyph unicode="&#xaa;" horiz-adv-x="747" d="M682 942h-102q-59 0 -91 47q-82 -61 -178 -61q-111 0 -178 46t-67 138t67.5 138t177.5 46q94 0 164 -57v143q0 47 -34.5 72t-90.5 25q-152 0 -151 -97h-97q0 72 72 106t176 34q111 0 178.5 -46t67.5 -139v-309q0 -20 13.5 -29.5t25.5 -10.5t47 -1v-45zM682 758h-616v73 h616v-73zM475 1036v160q-68 57 -158 57q-55 0 -93 -42t-38 -99t38 -99t93 -42q88 -1 158 65z" />
<glyph unicode="&#xab;" horiz-adv-x="974" d="M535 51l-54 -51l-448 471l448 471l54 -51l-226 -420zM909 51l-53 -51l-448 471l448 471l53 -51l-225 -420z" />
<glyph unicode="&#xac;" horiz-adv-x="1429" d="M1298 256h-118v453h-1049v118h1167v-571z" />
<glyph unicode="&#xad;" horiz-adv-x="761" d="M696 362h-630v150h630v-150z" />
<glyph unicode="&#xae;" horiz-adv-x="1564" d="M1499 717q0 -297 -210 -507t-507 -210t-506.5 210t-209.5 507t209.5 507t506.5 210t507 -210t210 -507zM1425 717q0 266 -188 454.5t-454.5 188.5t-455 -188.5t-188.5 -454.5t188.5 -454.5t455 -188.5t454.5 188.5t188 454.5zM1169 297h-96q-76 0 -113.5 32.5 t-44.5 106.5l-12 137q-6 84 -57 112t-158 28h-43v-199q0 -92 17 -166h88v-43h-355v43h88q16 88 17 166v414q0 78 -17 166h-88v43h355q332 0 331 -211q0 -156 -186 -195q145 -45 156 -158l10 -124q4 -45 27.5 -77t60.5 -32h20v-43zM942 926q0 82 -57.5 125t-151.5 43h-71 q-16 -74 -17 -166v-172h88q94 0 151.5 43t57.5 127z" />
<glyph unicode="&#xaf;" horiz-adv-x="1024" d="M848 1233h-672v74h672v-74z" />
<glyph unicode="&#xb0;" horiz-adv-x="802" d="M672 977l-158 -158h-225l-158 158v225l158 158h225l158 -158v-225zM598 1008v163l-115 115h-164l-114 -115v-163l114 -115h164z" />
<glyph unicode="&#xb1;" horiz-adv-x="1226" d="M1096 453h-424l2 -347h-121l2 347h-424v118h424v424h119v-424h422v-118zM1096 -119h-965v119h965v-119z" />
<glyph unicode="&#xb2;" horiz-adv-x="788" d="M707 1057l-52 -221h-573v102l313 231q141 102 142 287q0 68 -52.5 115t-124.5 47q-78 0 -127 -32t-49 -95q0 -39 19 -70h-105q-16 33 -16 70q0 86 82 132t196 46q131 0 227.5 -56.5t96.5 -156.5q0 -207 -244 -350l-225 -133h348q70 0 92 84h52z" />
<glyph unicode="&#xb3;" horiz-adv-x="788" d="M731 1067q0 -125 -93 -185.5t-245 -60.5q-141 0 -239.5 47t-98.5 148h138q0 -88 46 -116t154 -28q88 0 139.5 52.5t51.5 142.5q0 88 -51.5 140.5t-139.5 52.5h-141v51h115q76 0 120.5 41t44.5 112.5t-45 112.5t-120 41q-68 0 -117 -25.5t-49 -76.5h-123q0 154 289 153 q313 0 313 -205q0 -66 -42 -116t-108 -60q86 -8 143.5 -71.5t57.5 -149.5z" />
<glyph unicode="&#xb4;" horiz-adv-x="1024" d="M870 1382l-415 -278h-121q188 125 287 330h249v-52z" />
<glyph unicode="&#xb5;" horiz-adv-x="1228" d="M1163 49q-78 -74 -151 -74q-154 0 -240 117q-104 -125 -258 -125q-158 0 -268 99q29 -246 106 -472l-221 25v1323h201v-629q0 -86 52 -149.5t130 -63.5q125 0 213 99q-2 12 -2 37v706h201v-706q0 -160 86 -160q72 0 100 26z" />
<glyph unicode="&#xb6;" horiz-adv-x="946" d="M881 0h-719v74h151q29 147 29 286v357q-123 0 -199.5 106.5t-76.5 252t76.5 252t199.5 106.5h539v-74h-152q-29 -147 -29 -287v-713q0 -139 29 -286h152v-74zM582 74v1286h-121v-1286h121z" />
<glyph unicode="&#xb7;" d="M344 473l-106 -61l-107 61v123l107 61l106 -61v-123z" />
<glyph unicode="&#xb8;" horiz-adv-x="1024" d="M754 -250q0 -76 -72 -116t-170 -40q-123 0 -238 58l33 65q94 -49 205 -49q45 0 77 17.5t32 52.5q0 29 -23 48t-53 19q-41 0 -74 -12l-70 27l74 192h80l-47 -123q45 14 104.5 14.5t100.5 -46t41 -107.5z" />
<glyph unicode="&#xb9;" horiz-adv-x="788" d="M584 836h-420v51h123q18 86 18 172v371q0 25 -4 69q-55 -12 -117 -12v53q145 0 222 123l53 6q-16 -127 -17 -239v-371q0 -80 17 -172h125v-51z" />
<glyph unicode="&#xba;" horiz-adv-x="770" d="M705 1224.5q0 -139.5 -87.5 -218t-232.5 -78.5t-232 78.5t-87 218t87 218.5t232 79t232.5 -79t87.5 -218.5zM705 758h-639v73h639v-73zM578 1224.5q0 114.5 -48.5 184.5t-144.5 70t-144 -70t-48 -184.5t48 -184t144 -69.5t144.5 69.5t48.5 184z" />
<glyph unicode="&#xbb;" horiz-adv-x="974" d="M567 471l-448 -471l-53 51l225 420l-225 420l53 51zM942 471l-448 -471l-54 51l226 420l-226 420l54 51z" />
<glyph unicode="&#xbc;" horiz-adv-x="1794" d="M465 614h-420v52h123q18 86 18 172v370q0 25 -4 70q-55 -12 -116 -12v53q145 0 221 123l53 6q-16 -127 -16 -240v-370q0 -80 16 -172h125v-52zM1360 1483l-805 -1508h-109l805 1508h109zM1729 231h-164v-8q0 -80 16 -172h92v-51h-354v51h90q18 86 18 172v8h-444v78 l530 510h68q-16 -92 -16 -172v-311h164v-105zM1427 336v344l-344 -344h344z" />
<glyph unicode="&#xbd;" horiz-adv-x="1794" d="M465 614h-420v52h123q18 86 18 172v370q0 25 -4 70q-55 -12 -116 -12v53q145 0 221 123l53 6q-16 -127 -16 -240v-370q0 -80 16 -172h125v-52zM1270 1483l-805 -1508h-109l805 1508h109zM1729 221l-52 -221h-573v102l313 232q141 102 142 287q0 68 -51.5 114.5 t-125.5 46.5q-78 0 -126 -31.5t-48 -95.5q0 -43 17 -69h-103q-18 31 -18 69q0 86 83 132.5t195 46.5q131 0 227.5 -56.5t96.5 -156.5q0 -207 -244 -351l-223 -133h346q33 0 58.5 23.5t33.5 60.5h52z" />
<glyph unicode="&#xbe;" horiz-adv-x="1794" d="M741 846q0 -125 -93 -185.5t-245 -60.5q-141 0 -239 47t-98 148h137q0 -88 46 -116t154 -28q88 0 139.5 52.5t51.5 142.5q0 88 -51 140t-140 52h-141v52h115q76 0 121 40.5t45 112.5t-45 113t-121 41q-68 0 -117 -25.5t-49 -77.5h-123q0 154 289 154q313 0 313 -205 q0 -66 -42 -116t-107 -60q86 -8 143 -71.5t57 -149.5zM1448 1483l-805 -1508h-106l804 1508h107zM1729 231h-164v-8q0 -80 16 -172h92v-51h-354v51h90q18 86 18 172v8h-444v78l530 510h68q-16 -92 -16 -172v-311h164v-105zM1427 336v344l-344 -344h344z" />
<glyph unicode="&#xbf;" horiz-adv-x="1093" d="M963 -133q0 -92 -23 -150q-41 -100 -137 -154.5t-215 -54.5q-186 0 -321.5 74t-135.5 213q0 63 31 118.5t78 95.5t101 84t101 84t78 95.5t31 118.5v191h74v-191q0 -160 -131 -315q-12 -14 -44 -49t-47.5 -55.5t-36 -52.5t-29.5 -61.5t-9 -62.5q0 -92 77.5 -152.5 t182.5 -60.5q98 0 160.5 85t62.5 200h152zM694 770l-106 -61l-107 61v123l107 61l106 -61v-123z" />
<glyph unicode="&#xc0;" horiz-adv-x="1570" d="M1550 0h-546v74h120q-37 145 -102 286l-55 125h-545l-51 -125q-59 -141 -90 -286h120v-74h-378v74h120q88 141 148 286l321 787q59 143 103 315h82q43 -154 114 -315l359 -787q66 -143 160 -286h120v-74zM932 559l-252 555l-229 -555h481zM934 1579h-141l-396 227v54h265 q96 -181 272 -281z" />
<glyph unicode="&#xc1;" horiz-adv-x="1570" d="M1550 0h-546v74h120q-37 145 -102 286l-55 125h-545l-51 -125q-59 -141 -90 -286h120v-74h-378v74h120q88 141 148 286l321 787q59 143 103 315h82q43 -154 114 -315l359 -787q66 -143 160 -286h120v-74zM932 559l-252 555l-229 -555h481zM1114 1806l-395 -227h-141 q176 100 272 281h264v-54z" />
<glyph unicode="&#xc2;" horiz-adv-x="1570" d="M1550 0h-546v74h120q-37 145 -102 286l-55 125h-545l-51 -125q-59 -141 -90 -286h120v-74h-378v74h120q88 141 148 286l321 787q59 143 103 315h82q43 -154 114 -315l359 -787q66 -143 160 -286h120v-74zM932 559l-252 555l-229 -555h481zM1141 1581h-215l-226 219 l-225 -219h-104l284 279h201z" />
<glyph unicode="&#xc3;" horiz-adv-x="1570" d="M1550 0h-546v74h120q-37 145 -102 286l-55 125h-545l-51 -125q-59 -141 -90 -286h120v-74h-378v74h120q88 141 148 286l321 787q59 143 103 315h82q43 -154 114 -315l359 -787q66 -143 160 -286h120v-74zM932 559l-252 555l-229 -555h481zM1114 1812q-55 -66 -88 -101.5 t-85 -76.5t-89 -41q-47 0 -120 58.5t-120 58.5q-35 0 -68.5 -19.5t-55 -40t-52.5 -57.5l-39 33q55 66 88 101.5t85.5 76.5t88.5 41q47 0 120 -58t120 -58q35 0 68.5 19t55 39.5t52.5 57.5z" />
<glyph unicode="&#xc4;" horiz-adv-x="1570" d="M1550 0h-546v74h120q-37 145 -102 286l-55 125h-545l-51 -125q-59 -141 -90 -286h120v-74h-378v74h120q88 141 148 286l321 787q59 143 103 315h82q43 -154 114 -315l359 -787q66 -143 160 -286h120v-74zM932 559l-252 555l-229 -555h481zM672 1665l-97 -55l-96 55v111 l96 55l97 -55v-111zM1032 1665l-96 -55l-96 55v111l96 55l96 -55v-111z" />
<glyph unicode="&#xc5;" horiz-adv-x="1570" d="M1550 0h-546v74h120q-37 145 -102 286l-55 125h-545l-51 -125q-59 -141 -90 -286h120v-74h-378v74h120q88 141 148 286l321 787q59 143 103 315h82q43 -154 114 -315l359 -787q66 -143 160 -286h120v-74zM932 559l-252 555l-229 -555h481zM936 1647l-107 -107h-147 l-107 107v147l107 107h147l107 -107v-147zM862 1675v90l-61 62h-90l-62 -62v-90l62 -61h90z" />
<glyph unicode="&#xc6;" horiz-adv-x="2375" d="M2310 0h-1270v74h152q29 131 29 286v191h-650l-112 -191q-82 -137 -142 -286h152v-74h-446v74h151q104 127 199 286l465 787q66 111 110 213h-121v74h1364v-359h-73q0 115 -58.5 200t-154.5 85h-406q-29 -147 -29 -287v-282h424q45 0 78 26.5t33 67.5v57h74v-377h-74v58 q0 41 -33 67.5t-78 26.5h-424v-357q0 -139 29 -286h524q96 0 154.5 85t58.5 199h74v-358zM1221 625v448q0 156 -29 287h-117q-84 -98 -151 -213l-310 -522h607z" />
<glyph unicode="&#xc7;" horiz-adv-x="1548" d="M1483 72q-240 -94 -504 -101l-31 -82q45 14 104.5 14.5t100.5 -45.5t41 -108q0 -76 -71.5 -116t-170.5 -40q-123 0 -237 58l33 65q96 -49 204 -49q45 0 77 17.5t32 52.5q0 29 -22.5 48t-53.5 19q-39 0 -74 -12l-69 27l57 151q-379 14 -606 208t-227 538 q0 358 242.5 551.5t643.5 193.5q270 0 531 -100v-287h-74q0 145 -136 229.5t-321 84.5q-262 0 -441 -199t-179 -473.5t179 -473t441 -198.5q184 0 320.5 84t136.5 229h74v-286z" />
<glyph unicode="&#xc8;" horiz-adv-x="1400" d="M1335 0h-1269v74h151q29 147 29 286v713q0 139 -29 287h-151v74h1151v-359h-74q0 115 -58.5 200t-154.5 85h-406q-29 -147 -28 -287v-282h424q45 0 77.5 26.5t32.5 67.5v57h74v-377h-74v58q0 41 -32.5 67.5t-77.5 26.5h-424v-357q0 -139 28 -286h525q96 0 154.5 85 t58.5 199h73v-358zM856 1579h-141l-396 227v54h265q96 -181 272 -281z" />
<glyph unicode="&#xc9;" horiz-adv-x="1400" d="M1335 0h-1269v74h151q29 147 29 286v713q0 139 -29 287h-151v74h1151v-359h-74q0 115 -58.5 200t-154.5 85h-406q-29 -147 -28 -287v-282h424q45 0 77.5 26.5t32.5 67.5v57h74v-377h-74v58q0 41 -32.5 67.5t-77.5 26.5h-424v-357q0 -139 28 -286h525q96 0 154.5 85 t58.5 199h73v-358zM1036 1806l-395 -227h-141q176 100 272 281h264v-54z" />
<glyph unicode="&#xca;" horiz-adv-x="1400" d="M1335 0h-1269v74h151q29 147 29 286v713q0 139 -29 287h-151v74h1151v-359h-74q0 115 -58.5 200t-154.5 85h-406q-29 -147 -28 -287v-282h424q45 0 77.5 26.5t32.5 67.5v57h74v-377h-74v58q0 41 -32.5 67.5t-77.5 26.5h-424v-357q0 -139 28 -286h525q96 0 154.5 85 t58.5 199h73v-358zM1063 1581h-215l-225 219l-226 -219h-104l285 279h200z" />
<glyph unicode="&#xcb;" horiz-adv-x="1400" d="M1335 0h-1269v74h151q29 147 29 286v713q0 139 -29 287h-151v74h1151v-359h-74q0 115 -58.5 200t-154.5 85h-406q-29 -147 -28 -287v-282h424q45 0 77.5 26.5t32.5 67.5v57h74v-377h-74v58q0 41 -32.5 67.5t-77.5 26.5h-424v-357q0 -139 28 -286h525q96 0 154.5 85 t58.5 199h73v-358zM594 1665l-96 -55l-97 55v111l97 55l96 -55v-111zM954 1665l-96 -55l-96 55v111l96 55l96 -55v-111z" />
<glyph unicode="&#xcc;" horiz-adv-x="741" d="M676 0h-610v74h151q29 147 29 286v713q0 139 -29 287h-151v74h610v-74h-152q-29 -147 -28 -287v-713q0 -139 28 -286h152v-74zM549 1579h-141l-396 227v54h264q97 -181 273 -281z" />
<glyph unicode="&#xcd;" horiz-adv-x="741" d="M676 0h-610v74h151q29 147 29 286v713q0 139 -29 287h-151v74h610v-74h-152q-29 -147 -28 -287v-713q0 -139 28 -286h152v-74zM729 1806l-395 -227h-141q176 100 272 281h264v-54z" />
<glyph unicode="&#xce;" horiz-adv-x="741" d="M676 0h-610v74h151q29 147 29 286v713q0 139 -29 287h-151v74h610v-74h-152q-29 -147 -28 -287v-713q0 -139 28 -286h152v-74zM756 1581h-215l-226 219l-225 -219h-104l284 279h201z" />
<glyph unicode="&#xcf;" horiz-adv-x="741" d="M676 0h-610v74h151q29 147 29 286v713q0 139 -29 287h-151v74h610v-74h-152q-29 -147 -28 -287v-713q0 -139 28 -286h152v-74zM287 1665l-97 -55l-96 55v111l96 55l97 -55v-111zM647 1665l-96 -55l-96 55v111l96 55l96 -55v-111z" />
<glyph unicode="&#xd0;" horiz-adv-x="1802" d="M1737 717q0 -342 -229.5 -529.5t-606.5 -187.5h-835v74h151q29 147 29 286v320h-180v74h180v319q0 139 -29 287h-151v74h835q377 0 606.5 -187.5t229.5 -529.5zM1470 717q0 266 -188 454.5t-455 188.5h-303q-29 -147 -28 -287v-319h180v-74h-180v-320q0 -139 28 -286h303 q266 0 454.5 188.5t188.5 454.5z" />
<glyph unicode="&#xd1;" horiz-adv-x="1810" d="M1778 1360h-152q-29 -147 -29 -287v-1073h-124l-1131 1323q-23 -131 -23 -250v-713q0 -139 29 -286h152v-74h-434v74h151q29 147 29 286v713q0 139 -29 287h-151v74h538q100 -156 215 -287l705 -823v749q0 139 -29 287h-152v74h435v-74zM1280 1812q-55 -66 -88 -101.5 t-85 -76.5t-89 -41q-47 0 -120 58.5t-120 58.5q-35 0 -68.5 -19.5t-55 -40t-52.5 -57.5l-39 33q55 66 88 101.5t85 76.5t89 41q47 0 120 -58t120 -58q35 0 68.5 19t55 39.5t52.5 57.5z" />
<glyph unicode="&#xd2;" horiz-adv-x="1789" d="M1724 717q0 -350 -226 -548t-603 -198t-603 198t-226 548t226 547.5t603 197.5t603 -197.5t226 -547.5zM1458 716.5q0 272.5 -160.5 472.5t-402.5 200t-402.5 -200t-160.5 -472.5t160.5 -472t402.5 -199.5t402.5 199.5t160.5 472zM1073 1579h-141l-395 227v54h264 q96 -181 272 -281z" />
<glyph unicode="&#xd3;" horiz-adv-x="1789" d="M1724 717q0 -350 -226 -548t-603 -198t-603 198t-226 548t226 547.5t603 197.5t603 -197.5t226 -547.5zM1458 716.5q0 272.5 -160.5 472.5t-402.5 200t-402.5 -200t-160.5 -472.5t160.5 -472t402.5 -199.5t402.5 199.5t160.5 472zM1253 1806l-395 -227h-141 q176 100 272 281h264v-54z" />
<glyph unicode="&#xd4;" horiz-adv-x="1789" d="M1724 717q0 -350 -226 -548t-603 -198t-603 198t-226 548t226 547.5t603 197.5t603 -197.5t226 -547.5zM1458 716.5q0 272.5 -160.5 472.5t-402.5 200t-402.5 -200t-160.5 -472.5t160.5 -472t402.5 -199.5t402.5 199.5t160.5 472zM1280 1581h-215l-225 219l-226 -219 h-104l285 279h200z" />
<glyph unicode="&#xd5;" horiz-adv-x="1789" d="M1724 717q0 -350 -226 -548t-603 -198t-603 198t-226 548t226 547.5t603 197.5t603 -197.5t226 -547.5zM1458 716.5q0 272.5 -160.5 472.5t-402.5 200t-402.5 -200t-160.5 -472.5t160.5 -472t402.5 -199.5t402.5 199.5t160.5 472zM1253 1812q-55 -66 -87.5 -101.5 t-85 -76.5t-89.5 -41q-47 0 -119.5 58.5t-119.5 58.5q-35 0 -69 -19.5t-55.5 -40t-52.5 -57.5l-38 33q55 66 87.5 101.5t85 76.5t89.5 41q47 0 119.5 -58t119.5 -58q35 0 69 19t55.5 39.5t51.5 57.5z" />
<glyph unicode="&#xd6;" horiz-adv-x="1789" d="M1724 717q0 -350 -226 -548t-603 -198t-603 198t-226 548t226 547.5t603 197.5t603 -197.5t226 -547.5zM1458 716.5q0 272.5 -160.5 472.5t-402.5 200t-402.5 -200t-160.5 -472.5t160.5 -472t402.5 -199.5t402.5 199.5t160.5 472zM811 1665l-96 -55l-97 55v111l97 55 l96 -55v-111zM1171 1665l-96 -55l-96 55v111l96 55l96 -55v-111z" />
<glyph unicode="&#xd7;" horiz-adv-x="1226" d="M1096 115l-84 -86l-400 399l-397 -399l-84 86l397 397l-397 397l84 86l397 -399l400 399l84 -86l-400 -397z" />
<glyph unicode="&#xd8;" horiz-adv-x="1789" d="M1757 1434q0 -190 -123 -340q90 -158 90 -377q0 -350 -226 -548t-603 -198q-451 0 -674 271q-63 -111 -63 -242h-125q0 190 123 340q-90 162 -90 377q0 350 226 547.5t603 197.5q451 0 674 -270q63 111 63 242h125zM1403 1008q-68 170 -202 275.5t-306 105.5 q-242 0 -402.5 -200t-160.5 -472q0 -102 24 -199q195 129 516 232q349 113 531 258zM1458 717q0 106 -24 201q-193 -125 -539 -238q-330 -106 -510 -252q68 -172 203 -277.5t307 -105.5q242 0 402.5 200t160.5 472z" />
<glyph unicode="&#xd9;" horiz-adv-x="1622" d="M1589 1360h-151q-29 -147 -29 -287v-713q0 -229 -144.5 -307t-453.5 -78q-598 0 -598 385v713q0 139 -29 287h-151v74h610v-74h-151q-29 -147 -29 -287v-713q0 -139 123 -225t288 -86q236 0 348.5 64.5t112.5 246.5v713q0 139 -28 287h-152v74h434v-74zM1063 1579h-141 l-396 227v54h265q96 -181 272 -281z" />
<glyph unicode="&#xda;" horiz-adv-x="1622" d="M1589 1360h-151q-29 -147 -29 -287v-713q0 -229 -144.5 -307t-453.5 -78q-598 0 -598 385v713q0 139 -29 287h-151v74h610v-74h-151q-29 -147 -29 -287v-713q0 -139 123 -225t288 -86q236 0 348.5 64.5t112.5 246.5v713q0 139 -28 287h-152v74h434v-74zM1243 1806 l-395 -227h-141q176 100 272 281h264v-54z" />
<glyph unicode="&#xdb;" horiz-adv-x="1622" d="M1589 1360h-151q-29 -147 -29 -287v-713q0 -229 -144.5 -307t-453.5 -78q-598 0 -598 385v713q0 139 -29 287h-151v74h610v-74h-151q-29 -147 -29 -287v-713q0 -139 123 -225t288 -86q236 0 348.5 64.5t112.5 246.5v713q0 139 -28 287h-152v74h434v-74zM1270 1581h-215 l-226 219l-225 -219h-104l284 279h201z" />
<glyph unicode="&#xdc;" horiz-adv-x="1622" d="M1589 1360h-151q-29 -147 -29 -287v-713q0 -229 -144.5 -307t-453.5 -78q-598 0 -598 385v713q0 139 -29 287h-151v74h610v-74h-151q-29 -147 -29 -287v-713q0 -139 123 -225t288 -86q236 0 348.5 64.5t112.5 246.5v713q0 139 -28 287h-152v74h434v-74zM801 1665l-96 -55 l-97 55v111l97 55l96 -55v-111zM1161 1665l-96 -55l-96 55v111l96 55l96 -55v-111z" />
<glyph unicode="&#xdd;" horiz-adv-x="1599" d="M1579 1360h-113q-250 -176 -405 -440q-135 -229 -135 -443v-117q0 -139 28 -286h152v-74h-610v74h151q29 147 29 286v117q0 252 -199 531q-150 205 -354 352h-100v74h673v-74h-151q55 -98 135 -207q117 -162 172 -303q29 -78 41 -133q39 129 104 239q66 115 166 232 q123 139 123 172h-166v74h459v-74zM1159 1806l-395 -227h-141q176 100 272 281h264v-54z" />
<glyph unicode="&#xde;" horiz-adv-x="1314" d="M1249 716.5q0 -184.5 -140 -270.5t-374 -86h-239q0 -139 28 -286h152v-74h-610v74h151q29 147 29 286v713q0 139 -29 287h-151v74h610v-74h-152q-29 -147 -28 -287h239q233 0 373.5 -86t140.5 -270.5zM1036 717q0 137 -99 209.5t-261 72.5h-180v-565h180q162 0 261 73 t99 210z" />
<glyph unicode="&#xdf;" horiz-adv-x="1404" d="M1339 326q0 -147 -111.5 -249t-266.5 -102q-219 0 -394 140v254h74q0 -131 93 -225.5t227 -94.5q90 0 155.5 53.5t65.5 133.5q0 78 -64.5 125t-175.5 88q-135 51 -224 133t-89 194q0 68 48 130.5t105.5 104.5t105.5 104.5t48 129.5q0 70 -68.5 104.5t-165.5 34.5 q-121 0 -208.5 -86t-98.5 -208q-4 -41 5.5 -116t9.5 -106v-508q0 -139 28 -286h101v-74h-473v74h114q29 147 29 286v508h-143v74h143v148q0 166 147.5 267t345.5 101q418 0 418 -213q0 -55 -36.5 -97t-89 -69.5t-103.5 -55.5t-88 -70t-37 -97q0 -33 16.5 -62.5t36 -48 t60.5 -39t64.5 -29.5t72.5 -28q323 -122 323 -323z" />
<glyph unicode="&#xe0;" horiz-adv-x="1126" d="M1094 0h-172q-102 0 -150 80q-139 -104 -297 -105q-184 0 -296.5 78t-112.5 231.5t112.5 230.5t296.5 77q152 0 275 -96v237q0 80 -57.5 120t-153.5 40q-252 0 -252 -160h-160q0 121 120 177.5t292 56.5q184 0 297.5 -77t113.5 -231v-516q0 -33 18.5 -49t40 -18t72.5 -2 h13v-74zM750 158v264q-115 96 -267 96q-90 0 -153.5 -69.5t-63.5 -163.5q0 -96 62.5 -166t154.5 -70q68 0 143 31t124 78zM717 1104h-121l-416 278v52h252q97 -203 285 -330z" />
<glyph unicode="&#xe1;" horiz-adv-x="1126" d="M1094 0h-172q-102 0 -150 80q-139 -104 -297 -105q-184 0 -296.5 78t-112.5 231.5t112.5 230.5t296.5 77q152 0 275 -96v237q0 80 -57.5 120t-153.5 40q-252 0 -252 -160h-160q0 121 120 177.5t292 56.5q184 0 297.5 -77t113.5 -231v-516q0 -33 18.5 -49t40 -18t72.5 -2 h13v-74zM750 158v264q-115 96 -267 96q-90 0 -153.5 -69.5t-63.5 -163.5q0 -96 62.5 -166t154.5 -70q68 0 143 31t124 78zM897 1382l-416 -278h-121q188 125 287 330h250v-52z" />
<glyph unicode="&#xe2;" horiz-adv-x="1126" d="M1094 0h-172q-102 0 -150 80q-139 -104 -297 -105q-184 0 -296.5 78t-112.5 231.5t112.5 230.5t296.5 77q152 0 275 -96v237q0 80 -57.5 120t-153.5 40q-252 0 -252 -160h-160q0 121 120 177.5t292 56.5q184 0 297.5 -77t113.5 -231v-516q0 -33 18.5 -49t40 -18t72.5 -2 h13v-74zM750 158v264q-115 96 -267 96q-90 0 -153.5 -69.5t-63.5 -163.5q0 -96 62.5 -166t154.5 -70q68 0 143 31t124 78zM924 1106h-199l-238 270l-235 -270h-98l284 328h201z" />
<glyph unicode="&#xe3;" horiz-adv-x="1126" d="M1094 0h-172q-102 0 -150 80q-139 -104 -297 -105q-184 0 -296.5 78t-112.5 231.5t112.5 230.5t296.5 77q152 0 275 -96v237q0 80 -57.5 120t-153.5 40q-252 0 -252 -160h-160q0 121 120 177.5t292 56.5q184 0 297.5 -77t113.5 -231v-516q0 -33 18.5 -49t40 -18t72.5 -2 h13v-74zM750 158v264q-115 96 -267 96q-90 0 -153.5 -69.5t-63.5 -163.5q0 -96 62.5 -166t154.5 -70q68 0 143 31t124 78zM897 1362q-55 -66 -88 -101.5t-85 -76.5t-89 -41q-47 0 -120 58.5t-120 58.5q-35 0 -68.5 -19.5t-55 -40t-52.5 -57.5l-39 33q55 66 88 101.5 t85.5 76.5t88.5 41q47 0 120 -58.5t120 -58.5q35 0 68.5 19.5t55 40t52.5 57.5z" />
<glyph unicode="&#xe4;" horiz-adv-x="1126" d="M1094 0h-172q-102 0 -150 80q-139 -104 -297 -105q-184 0 -296.5 78t-112.5 231.5t112.5 230.5t296.5 77q152 0 275 -96v237q0 80 -57.5 120t-153.5 40q-252 0 -252 -160h-160q0 121 120 177.5t292 56.5q184 0 297.5 -77t113.5 -231v-516q0 -33 18.5 -49t40 -18t72.5 -2 h13v-74zM750 158v264q-115 96 -267 96q-90 0 -153.5 -69.5t-63.5 -163.5q0 -96 62.5 -166t154.5 -70q68 0 143 31t124 78zM455 1214l-97 -55l-96 55v111l96 55l97 -55v-111zM815 1214l-96 -55l-96 55v111l96 55l96 -55v-111z" />
<glyph unicode="&#xe5;" horiz-adv-x="1126" d="M1094 0h-172q-102 0 -150 80q-139 -104 -297 -105q-184 0 -296.5 78t-112.5 231.5t112.5 230.5t296.5 77q152 0 275 -96v237q0 80 -57.5 120t-153.5 40q-252 0 -252 -160h-160q0 121 120 177.5t292 56.5q184 0 297.5 -77t113.5 -231v-516q0 -33 18.5 -49t40 -18t72.5 -2 h13v-74zM750 158v264q-115 96 -267 96q-90 0 -153.5 -69.5t-63.5 -163.5q0 -96 62.5 -166t154.5 -70q68 0 143 31t124 78zM719 1196l-107 -106h-147l-107 106v147l107 107h147l107 -107v-147zM645 1225v90l-61 61h-90l-62 -61v-90l62 -62h90z" />
<glyph unicode="&#xe6;" horiz-adv-x="1716" d="M1651 188q-111 -127 -205 -170t-264 -43q-219 0 -344 136q-158 -135 -363 -136q-184 0 -296.5 78t-112.5 231.5t112.5 230.5t296.5 77q152 0 275 -96v237q0 80 -57.5 120t-153.5 40q-252 0 -252 -160h-160q0 121 120 177.5t292 56.5q225 0 331 -105q121 104 312 105 q193 0 331 -128t138 -315q-137 29 -301 29h-422q-2 -27 -2 -82q0 -170 83 -295t220 -125q127 0 209 42t157 145zM750 158v264q-115 96 -267 96q-90 0 -153.5 -69.5t-63.5 -163.5q0 -96 62.5 -166t154.5 -70q68 0 143 31t124 78zM1438 627q0 123 -69 194.5t-187 71.5 q-203 0 -246 -266h502z" />
<glyph unicode="&#xe7;" horiz-adv-x="1075" d="M1026 123q-164 -137 -379 -148l-33 -86q45 14 104.5 14.5t100.5 -45.5t41 -108q0 -76 -71.5 -116t-170.5 -40q-123 0 -237 58l33 65q94 -49 204 -49q45 0 77 17.5t32 52.5q0 29 -22.5 48t-53.5 19q-41 0 -73 -12l-70 27l59 157q-221 14 -350 144.5t-129 349.5 q0 231 145.5 363.5t387.5 132.5q180 0 348 -66v-190h-101q0 82 -73.5 132t-173.5 50q-160 0 -240 -115.5t-80 -306t80 -306.5t240 -116q135 0 233 56.5t98 160.5h74v-143z" />
<glyph unicode="&#xe8;" horiz-adv-x="1091" d="M1026 188q-111 -127 -205 -170t-264 -43q-217 0 -343 135.5t-126 360.5t126 360.5t343 135.5q193 0 331 -128t138 -315q-137 29 -301 29h-422q-2 -27 -2 -82q0 -170 83 -295t220 -125q127 0 209 42t158 145zM813 627q0 123 -68.5 194.5t-187.5 71.5q-203 0 -246 -266h502 zM735 1104h-121l-415 278v52h252q96 -203 284 -330z" />
<glyph unicode="&#xe9;" horiz-adv-x="1091" d="M1026 188q-111 -127 -205 -170t-264 -43q-217 0 -343 135.5t-126 360.5t126 360.5t343 135.5q193 0 331 -128t138 -315q-137 29 -301 29h-422q-2 -27 -2 -82q0 -170 83 -295t220 -125q127 0 209 42t158 145zM813 627q0 123 -68.5 194.5t-187.5 71.5q-203 0 -246 -266h502 zM915 1382l-415 -278h-121q188 125 287 330h249v-52z" />
<glyph unicode="&#xea;" horiz-adv-x="1091" d="M1026 188q-111 -127 -205 -170t-264 -43q-217 0 -343 135.5t-126 360.5t126 360.5t343 135.5q193 0 331 -128t138 -315q-137 29 -301 29h-422q-2 -27 -2 -82q0 -170 83 -295t220 -125q127 0 209 42t158 145zM813 627q0 123 -68.5 194.5t-187.5 71.5q-203 0 -246 -266h502 zM942 1106h-199l-237 270l-236 -270h-98l285 328h200z" />
<glyph unicode="&#xeb;" horiz-adv-x="1091" d="M1026 188q-111 -127 -205 -170t-264 -43q-217 0 -343 135.5t-126 360.5t126 360.5t343 135.5q193 0 331 -128t138 -315q-137 29 -301 29h-422q-2 -27 -2 -82q0 -170 83 -295t220 -125q127 0 209 42t158 145zM813 627q0 123 -68.5 194.5t-187.5 71.5q-203 0 -246 -266h502 zM473 1214l-96 -55l-96 55v111l96 55l96 -55v-111zM834 1214l-97 -55l-96 55v111l96 55l97 -55v-111z" />
<glyph unicode="&#xec;" horiz-adv-x="618" d="M553 0h-487v74h114q29 147 29 286v222q0 139 -29 286h-114v74q188 0 372 25q-29 -197 -28 -385v-222q0 -139 28 -286h115v-74zM487 1104h-120l-416 278v52h252q96 -203 284 -330z" />
<glyph unicode="&#xed;" horiz-adv-x="618" d="M553 0h-487v74h114q29 147 29 286v222q0 139 -29 286h-114v74q188 0 372 25q-29 -197 -28 -385v-222q0 -139 28 -286h115v-74zM668 1382l-416 -278h-121q188 125 287 330h250v-52z" />
<glyph unicode="&#xee;" horiz-adv-x="618" d="M553 0h-487v74h114q29 147 29 286v222q0 139 -29 286h-114v74q188 0 372 25q-29 -197 -28 -385v-222q0 -139 28 -286h115v-74zM694 1106h-198l-238 270l-235 -270h-99l285 328h201z" />
<glyph unicode="&#xef;" horiz-adv-x="618" d="M553 0h-487v74h114q29 147 29 286v222q0 139 -29 286h-114v74q188 0 372 25q-29 -197 -28 -385v-222q0 -139 28 -286h115v-74zM225 1214l-96 -55l-96 55v111l96 55l96 -55v-111zM586 1214l-97 -55l-96 55v111l96 55l97 -55v-111z" />
<glyph unicode="&#xf0;" horiz-adv-x="1196" d="M1130 471q0 -231 -145 -363.5t-387 -132.5t-387 132.5t-145 363.5t145 363.5t387 132.5q109 0 205 -29q-72 135 -180 233l-236 -129l-35 66l207 113q-188 139 -420 139v74q291 0 533 -152l291 160l34 -66l-256 -139q180 -135 284.5 -336t104.5 -430zM918 471.5 q0 190.5 -80 306t-240 115.5t-239.5 -115.5t-79.5 -306t79.5 -306.5t239.5 -116t240 116t80 306.5z" />
<glyph unicode="&#xf1;" horiz-adv-x="1318" d="M1253 0h-487v74h115q29 147 28 286v353q0 68 -58 110.5t-138 42.5q-92 0 -173 -46t-130 -124v-336q0 -139 28 -286h115v-74h-487v74h114q29 147 29 286v222q0 139 -29 286h-114v74q188 0 372 25l-28 -160q137 160 350 160t350 -160v-447q0 -139 29 -286h114v-74z M1018 1362q-55 -66 -88 -101.5t-85 -76.5t-89 -41q-47 0 -120 58.5t-120 58.5q-35 0 -68.5 -19.5t-55 -40t-52.5 -57.5l-39 33q55 66 88 101.5t85 76.5t89 41q47 0 120 -58.5t120 -58.5q35 0 68.5 19.5t55 40t52.5 57.5z" />
<glyph unicode="&#xf2;" horiz-adv-x="1218" d="M1153 471q0 -231 -145.5 -363.5t-387 -132.5t-387 132.5t-145.5 363.5t145.5 363.5t387 132.5t387 -132.5t145.5 -363.5zM940 471.5q0 190.5 -80 306t-239.5 115.5t-239.5 -115.5t-80 -306t80 -306.5t239.5 -116t239.5 116t80 306.5zM799 1104h-121l-416 278v52h252 q97 -203 285 -330z" />
<glyph unicode="&#xf3;" horiz-adv-x="1218" d="M1153 471q0 -231 -145.5 -363.5t-387 -132.5t-387 132.5t-145.5 363.5t145.5 363.5t387 132.5t387 -132.5t145.5 -363.5zM940 471.5q0 190.5 -80 306t-239.5 115.5t-239.5 -115.5t-80 -306t80 -306.5t239.5 -116t239.5 116t80 306.5zM979 1382l-416 -278h-121 q188 125 287 330h250v-52z" />
<glyph unicode="&#xf4;" horiz-adv-x="1218" d="M1153 471q0 -231 -145.5 -363.5t-387 -132.5t-387 132.5t-145.5 363.5t145.5 363.5t387 132.5t387 -132.5t145.5 -363.5zM940 471.5q0 190.5 -80 306t-239.5 115.5t-239.5 -115.5t-80 -306t80 -306.5t239.5 -116t239.5 116t80 306.5zM1006 1106h-199l-238 270l-235 -270 h-98l284 328h201z" />
<glyph unicode="&#xf5;" horiz-adv-x="1218" d="M1153 471q0 -231 -145.5 -363.5t-387 -132.5t-387 132.5t-145.5 363.5t145.5 363.5t387 132.5t387 -132.5t145.5 -363.5zM940 471.5q0 190.5 -80 306t-239.5 115.5t-239.5 -115.5t-80 -306t80 -306.5t239.5 -116t239.5 116t80 306.5zM979 1362q-55 -66 -88 -101.5 t-85 -76.5t-89 -41q-47 0 -120 58.5t-120 58.5q-35 0 -68.5 -19.5t-55 -40t-52.5 -57.5l-39 33q55 66 88 101.5t85 76.5t89 41q47 0 120 -58.5t120 -58.5q35 0 68.5 19.5t55 40t52.5 57.5z" />
<glyph unicode="&#xf6;" horiz-adv-x="1218" d="M1153 471q0 -231 -145.5 -363.5t-387 -132.5t-387 132.5t-145.5 363.5t145.5 363.5t387 132.5t387 -132.5t145.5 -363.5zM940 471.5q0 190.5 -80 306t-239.5 115.5t-239.5 -115.5t-80 -306t80 -306.5t239.5 -116t239.5 116t80 306.5zM537 1214l-97 -55l-96 55v111l96 55 l97 -55v-111zM897 1214l-96 -55l-96 55v111l96 55l96 -55v-111z" />
<glyph unicode="&#xf7;" horiz-adv-x="1226" d="M1096 453h-965v118h965v-118zM696 61l-106 -61l-107 61v123l107 62l106 -62v-123zM696 885l-106 -62l-107 62v123l107 61l106 -61v-123z" />
<glyph unicode="&#xf8;" horiz-adv-x="1196" d="M1130 471q0 -231 -145 -363.5t-387 -132.5q-252 0 -399 144q-33 -70 -33 -144h-100q0 119 71 224q-72 113 -71 272q0 231 145 363.5t387 132.5q252 0 399 -144q33 70 33 144h100q0 -121 -71 -222q71 -112 71 -274zM885 684q-74 209 -287 209q-160 0 -239.5 -115.5 t-79.5 -306.5q0 -57 10 -123q102 76 278 154q212 90 318 182zM918 471q0 61 -11 129q-109 -78 -309 -166q-176 -76 -289 -172q74 -213 289 -213q160 0 240 116t80 306z" />
<glyph unicode="&#xf9;" horiz-adv-x="1275" d="M1210 0q-188 0 -372 -25l28 160q-137 -160 -350 -160t-350 160v447q0 139 -29 286h-114v74q188 0 372 25q-29 -197 -28 -385v-353q0 -68 58 -110.5t138 -42.5q92 0 173 46t130 124v336q0 139 -28 286h-115v74q188 0 373 25q-29 -197 -29 -385v-222q0 -139 29 -286h114 v-74zM795 1104h-121l-416 278v52h252q97 -203 285 -330z" />
<glyph unicode="&#xfa;" horiz-adv-x="1275" d="M1210 0q-188 0 -372 -25l28 160q-137 -160 -350 -160t-350 160v447q0 139 -29 286h-114v74q188 0 372 25q-29 -197 -28 -385v-353q0 -68 58 -110.5t138 -42.5q92 0 173 46t130 124v336q0 139 -28 286h-115v74q188 0 373 25q-29 -197 -29 -385v-222q0 -139 29 -286h114 v-74zM975 1382l-416 -278h-121q188 125 287 330h250v-52z" />
<glyph unicode="&#xfb;" horiz-adv-x="1275" d="M1210 0q-188 0 -372 -25l28 160q-137 -160 -350 -160t-350 160v447q0 139 -29 286h-114v74q188 0 372 25q-29 -197 -28 -385v-353q0 -68 58 -110.5t138 -42.5q92 0 173 46t130 124v336q0 139 -28 286h-115v74q188 0 373 25q-29 -197 -29 -385v-222q0 -139 29 -286h114 v-74zM1001 1106h-198l-238 270l-235 -270h-99l285 328h201z" />
<glyph unicode="&#xfc;" horiz-adv-x="1275" d="M1210 0q-188 0 -372 -25l28 160q-137 -160 -350 -160t-350 160v447q0 139 -29 286h-114v74q188 0 372 25q-29 -197 -28 -385v-353q0 -68 58 -110.5t138 -42.5q92 0 173 46t130 124v336q0 139 -28 286h-115v74q188 0 373 25q-29 -197 -29 -385v-222q0 -139 29 -286h114 v-74zM532 1214l-96 -55l-96 55v111l96 55l96 -55v-111zM893 1214l-96 -55l-97 55v111l97 55l96 -55v-111z" />
<glyph unicode="&#xfd;" horiz-adv-x="1189" d="M1102 967q-29 -197 -29 -385v-394q0 -266 -194.5 -452.5t-468.5 -186.5q-137 0 -234.5 51.5t-97.5 151.5q0 96 70.5 158.5t195.5 112.5q-84 47 -135 112v447q0 139 -29 286h-114v74q188 0 372 25q-29 -197 -28 -385v-353q0 -66 52 -109.5t124 -43.5q90 0 167.5 48 t118.5 128v330q0 139 -28 286h-115v74q189 0 373 25zM872 135q-127 -160 -331 -160q-80 0 -148 27q-84 -23 -139 -91.5t-55 -158.5q0 -63 62.5 -96t148.5 -33q145 0 270 64q192 94 192 448zM999 1382l-415 -278h-121q188 125 287 330h249v-52z" />
<glyph unicode="&#xfe;" horiz-adv-x="1294" d="M1229 471q0 -231 -146.5 -363.5t-390.5 -132.5q-176 0 -282 107v-127q0 -139 28 -287h115v-74h-487v74h114q29 147 29 287v1118q0 139 -29 287h-114v74q188 0 372 24q-29 -197 -28 -385v-217q121 111 282 111q244 0 390.5 -132.5t146.5 -363.5zM1016 471.5 q0 190.5 -95.5 306t-267.5 115.5q-152 0 -243 -119v-520q0 -90 78.5 -147.5t185.5 -57.5q166 0 254 116t88 306.5z" />
<glyph unicode="&#xff;" horiz-adv-x="1189" d="M1102 967q-29 -197 -29 -385v-394q0 -266 -194.5 -452.5t-468.5 -186.5q-137 0 -234.5 51.5t-97.5 151.5q0 96 70.5 158.5t195.5 112.5q-84 47 -135 112v447q0 139 -29 286h-114v74q188 0 372 25q-29 -197 -28 -385v-353q0 -66 52 -109.5t124 -43.5q90 0 167.5 48 t118.5 128v330q0 139 -28 286h-115v74q189 0 373 25zM872 135q-127 -160 -331 -160q-80 0 -148 27q-84 -23 -139 -91.5t-55 -158.5q0 -63 62.5 -96t148.5 -33q145 0 270 64q192 94 192 448zM557 1214l-96 -55l-96 55v111l96 55l96 -55v-111zM918 1214l-97 -55l-96 55v111 l96 55l97 -55v-111z" />
<glyph unicode="&#x152;" horiz-adv-x="2459" d="M2394 0h-952q-90 0 -272.5 -14.5t-274.5 -14.5q-377 0 -603 198t-226 548t226 547.5t603 197.5q86 0 258 -14t260 -14h862v-359h-73q0 115 -58.5 200t-154.5 85h-406q-29 -147 -29 -287v-282h424q45 0 78 26.5t33 67.5v57h74v-377h-74v58q0 41 -33 67.5t-78 26.5h-424 v-357q0 -139 29 -286h524q96 0 154.5 85t58.5 199h74v-358zM1305 360v713q0 141 -122 228.5t-288 87.5q-242 0 -402.5 -200t-160.5 -472.5t160.5 -472t402.5 -199.5q166 0 288 87t122 228z" />
<glyph unicode="&#x153;" horiz-adv-x="1943" d="M1878 188q-111 -127 -205 -170t-264 -43q-244 0 -369 164q-145 -164 -419 -164q-242 0 -387.5 132.5t-145.5 363.5t145.5 363.5t387.5 132.5q274 0 419 -164q125 164 369 164q193 0 331 -128t138 -315q-137 29 -301 29h-422q-2 -27 -2 -82q0 -170 83 -295t220 -125 q127 0 209 42t158 145zM940 471.5q0 190.5 -80 306t-239.5 115.5t-239.5 -115.5t-80 -306t80 -306.5t239.5 -116t239.5 116t80 306.5zM1665 627q0 123 -68.5 194.5t-187.5 71.5q-203 0 -246 -266h502z" />
<glyph unicode="&#x178;" horiz-adv-x="1599" d="M1579 1360h-113q-250 -176 -405 -440q-135 -229 -135 -443v-117q0 -139 28 -286h152v-74h-610v74h151q29 147 29 286v117q0 252 -199 531q-150 205 -354 352h-100v74h673v-74h-151q55 -98 135 -207q117 -162 172 -303q29 -78 41 -133q39 129 104 239q66 115 166 232 q123 139 123 172h-166v74h459v-74zM717 1665l-96 -55l-97 55v111l97 55l96 -55v-111zM1077 1665l-96 -55l-96 55v111l96 55l96 -55v-111z" />
<glyph unicode="&#x2c6;" horiz-adv-x="1024" d="M897 1106h-199l-237 270l-236 -270h-98l285 328h200z" />
<glyph unicode="&#x2dc;" horiz-adv-x="1024" d="M870 1362q-55 -66 -87.5 -101.5t-85 -76.5t-89.5 -41q-47 0 -119.5 58.5t-119.5 58.5q-35 0 -69 -19.5t-55.5 -40t-51.5 -57.5l-39 33q55 66 87.5 101.5t85 76.5t89.5 41q47 0 119.5 -58.5t119.5 -58.5q35 0 69 19.5t55.5 40t51.5 57.5z" />
<glyph unicode="&#x2000;" horiz-adv-x="950" />
<glyph unicode="&#x2001;" horiz-adv-x="1901" />
<glyph unicode="&#x2002;" horiz-adv-x="950" />
<glyph unicode="&#x2003;" horiz-adv-x="1901" />
<glyph unicode="&#x2004;" horiz-adv-x="633" />
<glyph unicode="&#x2005;" />
<glyph unicode="&#x2006;" horiz-adv-x="316" />
<glyph unicode="&#x2007;" horiz-adv-x="316" />
<glyph unicode="&#x2008;" horiz-adv-x="237" />
<glyph unicode="&#x2009;" horiz-adv-x="380" />
<glyph unicode="&#x200a;" horiz-adv-x="105" />
<glyph unicode="&#x2010;" horiz-adv-x="761" d="M696 362h-630v150h630v-150z" />
<glyph unicode="&#x2011;" horiz-adv-x="761" d="M696 362h-630v150h630v-150z" />
<glyph unicode="&#x2012;" horiz-adv-x="761" d="M696 362h-630v150h630v-150z" />
<glyph unicode="&#x2013;" horiz-adv-x="1257" d="M1257 393h-1257v119h1257v-119z" />
<glyph unicode="&#x2014;" horiz-adv-x="1888" d="M1888 393h-1888v119h1888v-119z" />
<glyph unicode="&#x2018;" d="M346 1384q-117 -76 -137 -213l29 17l106 -62v-122l-106 -62l-107 62v122q0 96 47 182.5t129 137.5z" />
<glyph unicode="&#x2019;" d="M346 1262q0 -96 -47 -182.5t-129 -137.5l-39 62q117 76 137 213l-28 -17l-107 62v122l107 62l106 -62v-122z" />
<glyph unicode="&#x201a;" d="M344 49q0 -96 -47 -182t-129 -137l-39 61q117 76 137 213l-28 -16l-107 61v123l107 61l106 -61v-123z" />
<glyph unicode="&#x201c;" horiz-adv-x="835" d="M346 1384q-117 -76 -137 -213l29 17l106 -62v-122l-106 -62l-107 62v122q0 96 47 182.5t129 137.5zM707 1384q-117 -76 -138 -213l29 17l107 -62v-122l-107 -62l-106 62v122q0 96 47 182.5t129 137.5z" />
<glyph unicode="&#x201d;" horiz-adv-x="835" d="M346 1262q0 -96 -47 -182.5t-129 -137.5l-39 62q117 76 137 213l-28 -17l-107 62v122l107 62l106 -62v-122zM707 1262q0 -96 -47.5 -182.5t-129.5 -137.5l-38 62q117 76 137 213l-29 -17l-106 62v122l106 62l107 -62v-122z" />
<glyph unicode="&#x201e;" horiz-adv-x="835" d="M344 49q0 -96 -47 -182t-129 -137l-39 61q117 76 137 213l-28 -16l-107 61v123l107 61l106 -61v-123zM707 49q0 -96 -47.5 -182t-129.5 -137l-38 61q117 76 137 213l-29 -16l-106 61v123l106 61l107 -61v-123z" />
<glyph unicode="&#x2022;" horiz-adv-x="1024" d="M846 319l-334 -192l-334 192v386l334 192l334 -192v-386z" />
<glyph unicode="&#x2026;" horiz-adv-x="1282" d="M279 49l-107 -61l-106 61v123l106 61l107 -61v-123zM748 49l-107 -61l-106 61v123l106 61l107 -61v-123zM1217 49l-107 -61l-106 61v123l106 61l107 -61v-123z" />
<glyph unicode="&#x202f;" horiz-adv-x="380" />
<glyph unicode="&#x2039;" horiz-adv-x="600" d="M535 51l-54 -51l-448 471l448 471l54 -51l-226 -420z" />
<glyph unicode="&#x203a;" horiz-adv-x="600" d="M567 471l-448 -471l-53 51l225 420l-225 420l53 51z" />
<glyph unicode="&#x205f;" />
<glyph unicode="&#x20ac;" horiz-adv-x="1388" d="M1311 72q-205 -100 -426 -101q-283 0 -464 150.5t-228 415.5h-140v73h129q-6 53 -6 106.5t6 106.5h-129v74h140q47 264 228 414.5t464 150.5q221 0 426 -100v-143h-74q0 170 -352 170q-174 0 -283.5 -138.5t-144.5 -353.5h518v-74h-529q-4 -70 -4 -106.5t4 -106.5h439 v-73h-428q35 -215 144.5 -353.5t283.5 -138.5q352 0 352 170h74v-143z" />
<glyph unicode="&#x2122;" horiz-adv-x="2232" d="M995 1219h-45q0 70 -34.5 120t-92.5 50h-200q-18 -82 -19 -172v-426q0 -90 19 -173h90v-45h-367v45h92q16 88 17 173v426q0 84 -17 172h-200q-57 0 -92 -50.5t-35 -119.5h-45v215h929v-215zM2193 573h-366v45h90q18 82 18 173v426q0 51 -6 100l-270 -572 q-43 -94 -64 -172h-43q-20 78 -63 172l-270 580q-6 -55 -7 -108v-426q0 -84 17 -173h92v-45h-260v45h90q16 74 16 173v426q0 98 -16 172h-90v45h291q18 -74 61 -172l219 -469l221 469q37 78 64 172h276v-45h-92q-16 -88 -16 -172v-426q0 -84 16 -173h92v-45z" />
<glyph unicode="&#xe000;" horiz-adv-x="942" d="M0 942h942v-942h-942v942z" />
<glyph unicode="&#xfb03;" horiz-adv-x="1978" d="M1913 0h-488v74h115q29 147 29 286v222q0 139 -29 286h-426v-508q0 -139 29 -286h151v-74h-549v74h140q29 147 28 286v508h-479v-508q0 -139 29 -286h151v-74h-548v74h139q29 147 28 286v508h-167v74h167v148q0 55 15.5 113.5t48.5 117.5t98.5 98t151.5 39 q96 0 143 -18.5t117 -83.5v-101h-168q0 53 -24.5 91t-67.5 38q-57 0 -98 -37.5t-41 -91.5q0 -63 14 -157q12 -102 12 -156h479v148q0 98 39 186q82 182 410 182q240 0 414 -168v-123l-107 -61l-106 61v123q-78 94 -201 94q-274 0 -275 -129q0 -63 15 -157q12 -102 12 -156 h311q188 0 373 25q-29 -197 -29 -385v-222q0 -139 29 -286h115v-74z" />
</font>
</defs>
</svg>
